<?xml version="1.0" encoding="UTF-8"?>
<!DOCTYPE svg PUBLIC "-//W3C//DTD SVG 1.1//EN" "http://www.w3.org/Graphics/SVG/1.1/DTD/svg11.dtd">
<!-- Creator: CorelDRAW 2020 -->
<svg xmlns="http://www.w3.org/2000/svg" xml:space="preserve" width="27mm" height="30.8mm" version="1.1" style="shape-rendering:geometricPrecision; text-rendering:geometricPrecision; image-rendering:optimizeQuality; fill-rule:evenodd; clip-rule:evenodd"
viewBox="0 0 2700 3080"
 xmlns:xlink="http://www.w3.org/1999/xlink"
 xmlns:xodm="http://www.corel.com/coreldraw/odm/2003">
 <defs>
  <style type="text/css">
   <![CDATA[
    .fil1 {fill:#F4A256}
    .fil0 {fill:#0A426B;fill-rule:nonzero}
    .fil2 {fill:url(#id0)}
   ]]>
  </style>
  <linearGradient id="id0" gradientUnits="userSpaceOnUse" x1="258.72" y1="2872.13" x2="1166.81" y2="1373.53">
   <stop offset="0" style="stop-opacity:1; stop-color:#E67738"/>
   <stop offset="0.45098" style="stop-opacity:1; stop-color:#F0954F"/>
   <stop offset="1" style="stop-opacity:1; stop-color:#FBB467"/>
  </linearGradient>
 </defs>
 <g id="Camada_x0020_1">
  <metadata id="CorelCorpID_0Corel-Layer"/>
  <g id="_-908032880">
   <path class="fil0" d="M1031.13 594.15l0 1085.34c311.76,206.87 409.54,604.7 314.92,956.19 -49.34,183.32 -143.62,312.98 -294.81,422.25l704.05 0 0 -1198.6 778.26 0 0 -432.81 -778.26 0 0 -695.03c0,-162.31 116.52,-278.85 278.83,-278.85l624.29 0 0 -432.82 -1052.94 0c-328.76,0 -574.34,245.57 -574.34,574.33z"/>
   <path class="fil1" d="M485.15 3059.67c41.9,15.72 188.89,24.62 243.78,1.48 1.34,-0.12 3.79,-1.09 4.95,-1.28l-0.62 -4.62c20.33,-21.13 40.22,-44.48 57.81,-73.02 18.71,-30.38 34.74,-66.59 45.72,-112.08 16.94,-70.22 17.36,-164.03 3.11,-252.52 -13.46,-83.68 -40.05,-162.76 -78.13,-212.85l-17.82 -23.23c-69.73,-90.62 -107.4,-139.51 -92.89,-302.69l0.51 -5.82 -5.66 1.93c-28.51,9.78 -59.32,37.69 -87.02,71.75 -33.8,41.55 -63.18,92.44 -78.06,130.54 -19.01,48.6 -29.38,115.96 -33.79,186.62 -5.4,86.33 -1.94,177.73 5.46,245.84 -10.55,-5.29 -19.64,-12.68 -27.69,-21.42 -9.7,-10.55 -17.94,-23.07 -25.39,-36.33 -7.42,-13.18 -13.1,-25.69 -17.88,-39.15 -4.81,-13.54 -8.78,-28.18 -12.8,-45.52l-1.85 -7.94 -5.03 6.49c-20.34,26.28 -29.3,70.93 -30.95,118.98 -2.1,61.02 7.55,127.83 20.54,169.1 30.99,98.37 57.3,125.99 103.17,174.19 8.61,9.05 17.92,18.83 27.66,29.46l1.13 1.25 0.98 0.01 0.76 0.83z"/>
   <path class="fil2" d="M270.94 2101.19c1.5,-71.24 -10.63,-128.49 -41.46,-181.63 -22.95,-39.57 -71.93,-98.69 -107.15,-116.41 30.69,176.35 -4.61,202.55 -52.96,379.55 -49.89,182.64 -64.42,415.92 23.02,592.88 41.47,83.92 89.99,133.83 156.58,183.58 60.51,45.2 160.39,90.94 236.19,100.51 -63.62,-69.86 -93.53,-86.89 -130.01,-203.19 -22.98,-73.29 -35.38,-227.39 9.81,-286.03 8.09,35.03 16.03,59.27 31.05,86.06 15.2,27.11 33.55,51.29 61.08,62.48 -14.11,-123.37 -15.35,-329.65 27.36,-439.42 26.78,-68.89 100.89,-179.69 162.74,-201.01 -15.81,178.82 29.86,222.2 111.47,330.03 77.65,102.61 107.1,328.13 74.35,464.43 -21.76,90.61 -63.43,144.02 -106.53,188.32 109.23,-7.88 220.71,-88.18 301.76,-157.28 79.25,-67.55 144.61,-186.33 173.78,-296.96 50.05,-189.67 25.14,-421.59 -60.17,-596.85 -17.59,-36.14 -70.77,-130.01 -91.87,-144.29 9.08,78.72 16.62,141.93 5.2,222.98 -6.62,46.91 -34.71,151 -64.97,170.05 -16.53,-223.98 -73.93,-316.84 -199.8,-473.94 -141.92,-177.14 -134.2,-408.53 -73.08,-614.22 -114.29,34.43 -280.68,290.01 -302.37,417.74 -15.37,90.66 -27.5,215.76 -46.84,309.51 -9.92,48.1 -53.32,182.55 -97.18,203.11z"/>
  </g>
 </g>
</svg>
