<?xml version="1.0" encoding="UTF-8"?>
<!DOCTYPE svg PUBLIC "-//W3C//DTD SVG 1.1//EN" "http://www.w3.org/Graphics/SVG/1.1/DTD/svg11.dtd">
<!-- Creator: CorelDRAW 2020 -->
<svg xmlns="http://www.w3.org/2000/svg" xml:space="preserve" width="160mm" height="65mm" version="1.1" style="shape-rendering:geometricPrecision; text-rendering:geometricPrecision; image-rendering:optimizeQuality; fill-rule:evenodd; clip-rule:evenodd"
viewBox="0 0 16000 6500"
 xmlns:xlink="http://www.w3.org/1999/xlink"
 xmlns:xodm="http://www.corel.com/coreldraw/odm/2003">
 <defs>
  <style type="text/css">
   <![CDATA[
    .fil1 {fill:#F4A256}
    .fil0 {fill:#0A426B;fill-rule:nonzero}
    .fil2 {fill:url(#id0)}
   ]]>
  </style>
  <linearGradient id="id0" gradientUnits="userSpaceOnUse" x1="12726.1" y1="2327.43" x2="13905.23" y2="381.51">
   <stop offset="0" style="stop-opacity:1; stop-color:#E67738"/>
   <stop offset="0.45098" style="stop-opacity:1; stop-color:#F0954F"/>
   <stop offset="1" style="stop-opacity:1; stop-color:#FBB467"/>
  </linearGradient>
 </defs>
 <g id="Camada_x0020_1">
  <metadata id="CorelCorpID_0Corel-Layer"/>
  <g id="_-1148560272">
   <path class="fil0" d="M111.95 1806.84l0 2735.88 804.13 0 0 -1330.97 864.21 0 0 -480.62 -864.21 0 0 -771.79c0,-180.23 129.4,-309.64 309.63,-309.64l693.22 0 0 -480.62 -1169.21 0c-365.07,0 -637.77,272.7 -637.77,637.76zm2817.15 2735.88l1169.22 0 0 -480.62 -693.21 0c-180.17,0 -309.62,-129.39 -309.62,-309.63l0 -2583.39 -804.14 0 0 2735.89c0,365.03 272.67,637.75 637.75,637.75zm3015.88 -3373.64l-1520.46 0 0 3373.64 804.14 0 0 -1053.68 596.17 0 0 1053.68 804.12 0 0 -2689.66c0,-392.82 -291.24,-683.98 -683.97,-683.98zm-716.32 1839.34l0 -1358.72 337.36 0c147.88,0 258.81,111.02 258.81,258.81l0 1099.91 -596.17 0zm3223.84 1566.66l822.61 -1931.76 0 1899.4 804.13 0 0 -3373.64 -415.93 0c-198.61,0 -383.12,106.63 -457.52,281.91l-623.9 1469.62 -637.76 -1469.62c-74.15,-170.89 -258.91,-281.91 -457.51,-281.91l-462.15 0 0 3373.64 605.42 0 0 -1899.4 822.61 1931.76zm2660.01 -32.36l1169.23 0 0 -480.62 -693.21 0c-180.1,0 -309.64,-129.39 -309.64,-309.63l0 -771.78 956.63 0 0 -480.64 -956.63 0 0 -850.35 1002.85 0 0 -480.62 -1806.98 0 0 2735.89c0,364.95 272.66,637.75 637.75,637.75zm3017.99 -3373.64l0 480.62 541.14 0 -1599.68 2375.43c-93.91,139.46 -115.54,263.49 -115.54,489.87l0 27.72 2689.12 0 0 -480.62 -1665 0 1905.95 -2893.02 -1755.99 0z"/>
   <path class="fil0" d="M96.63 5758.75c0,-70.42 14.93,-133.74 44.73,-190.01 29.84,-56.25 70.54,-100.26 122.09,-132.01 51.55,-31.76 108.77,-47.63 171.67,-47.63 73.93,0 138.44,18.98 193.55,56.94 55.12,37.97 95.32,91.81 120.61,161.53l-106.02 0c-18.8,-43.48 -45.87,-76.97 -81.22,-100.43 -35.34,-23.47 -77.66,-35.21 -126.92,-35.21 -47.35,0 -89.82,11.74 -127.41,35.21 -37.61,23.46 -67.13,56.76 -88.54,99.92 -21.37,43.14 -32.09,93.7 -32.09,151.69 0,57.28 10.72,107.51 32.09,150.65 21.41,43.14 50.93,76.43 88.54,99.91 37.59,23.46 80.06,35.2 127.41,35.2 49.26,0 91.58,-11.55 126.92,-34.69 35.35,-23.12 62.42,-56.42 81.22,-99.91l106.02 0c-25.29,69.02 -65.49,122.35 -120.61,159.98 -55.11,37.61 -119.62,56.42 -193.55,56.42 -62.9,0 -120.12,-15.71 -171.67,-47.11 -51.55,-31.4 -92.25,-75.06 -122.09,-130.97 -29.8,-55.92 -44.73,-119.09 -44.73,-189.48zm1380.28 368.59c-62.9,0 -120.27,-15.69 -172.16,-47.1 -51.88,-31.4 -92.89,-75.24 -123.04,-131.5 -30.14,-56.26 -45.22,-119.6 -45.22,-189.99 0,-70.42 15.08,-133.74 45.22,-190.01 30.15,-56.25 71.16,-100.09 123.04,-131.5 51.89,-31.4 109.26,-47.11 172.16,-47.11 63.54,0 121.25,15.71 173.14,47.11 51.86,31.41 92.73,75.08 122.53,130.99 29.84,55.91 44.75,119.4 44.75,190.52 0,71.09 -14.91,134.6 -44.75,190.51 -29.8,55.91 -70.67,99.58 -122.53,130.98 -51.89,31.41 -109.6,47.1 -173.14,47.1zm0 -81.79c47.33,0 89.97,-11.73 127.9,-35.2 37.93,-23.48 67.77,-56.95 89.48,-100.44 21.73,-43.48 32.59,-93.88 32.59,-151.16 0,-57.99 -10.86,-108.55 -32.59,-151.69 -21.71,-43.16 -51.38,-76.46 -88.99,-99.92 -37.6,-23.47 -80.4,-35.21 -128.39,-35.21 -47.97,0 -90.79,11.74 -128.38,35.21 -37.61,23.46 -67.29,56.76 -89.01,99.92 -21.71,43.14 -32.58,93.7 -32.58,151.69 0,57.28 10.87,107.68 32.58,151.16 21.72,43.49 51.55,76.96 89.48,100.44 37.93,23.47 80.56,35.2 127.91,35.2zm1433.78 -641.95l0 716.5 -88.52 0 0 -534.28 -223.69 534.28 -62.26 0 -224.7 -535.31 0 535.31 -88.49 0 0 -716.5 95.33 0 248.97 592.24 249.01 -592.24 94.35 0zm525.32 -5.17l0 456.6c0,64.21 14.76,111.82 44.28,142.9 29.5,31.06 70.51,46.58 123.03,46.58 51.88,0 92.57,-15.52 122.07,-46.58 29.5,-31.08 44.24,-78.69 44.24,-142.9l0 -456.6 88.53 0 0 455.56c0,60.06 -11.35,110.62 -34.06,151.69 -22.7,41.07 -53.32,71.62 -91.91,91.64 -38.59,20.01 -81.86,30.02 -129.84,30.02 -47.98,0 -91.28,-10.01 -129.85,-30.02 -38.59,-20.02 -69.06,-50.57 -91.43,-91.64 -22.38,-41.07 -33.56,-91.63 -33.56,-151.69l0 -455.56 88.5 0zm1391.98 721.67l-88.53 0 -355.99 -574.65 0 574.65 -88.5 0 0 -722.73 88.5 0 355.99 573.64 0 -573.64 88.53 0 0 722.73zm528.23 -721.67l0 721.67 -88.5 0 0 -721.67 88.5 0zm406.68 360.32c0,-70.42 14.91,-133.74 44.71,-190.01 29.84,-56.25 70.54,-100.26 122.09,-132.01 51.55,-31.76 108.77,-47.63 171.67,-47.63 73.93,0 138.44,18.98 193.55,56.94 55.12,37.97 95.32,91.81 120.61,161.53l-106.02 0c-18.8,-43.48 -45.87,-76.97 -81.22,-100.43 -35.32,-23.47 -77.64,-35.21 -126.92,-35.21 -47.35,0 -89.81,11.74 -127.41,35.21 -37.61,23.46 -67.13,56.76 -88.54,99.92 -21.37,43.14 -32.09,93.7 -32.09,151.69 0,57.28 10.72,107.51 32.09,150.65 21.41,43.14 50.93,76.43 88.54,99.91 37.6,23.46 80.06,35.2 127.41,35.2 49.28,0 91.6,-11.55 126.92,-34.69 35.35,-23.12 62.42,-56.42 81.22,-99.91l106.02 0c-25.29,69.02 -65.49,122.35 -120.61,159.98 -55.11,37.61 -119.62,56.42 -193.55,56.42 -62.9,0 -120.12,-15.71 -171.67,-47.11 -51.55,-31.4 -92.25,-75.06 -122.09,-130.97 -29.8,-55.92 -44.71,-119.09 -44.71,-189.48zm1473.64 200.86l-295.69 0 -54.47 160.49 -93.38 0 245.12 -717.54 102.12 0 244.14 717.54 -93.37 0 -54.47 -160.49zm-25.29 -76.62l-122.54 -364.46 -122.56 364.46 245.1 0zm874.51 161.52c49.28,0 91.61,-11.55 126.92,-34.69 35.36,-23.12 62.43,-56.42 81.22,-99.91l106.03 0c-23.35,63.51 -59.49,113.89 -108.45,151.17 -48.96,37.27 -106.19,58.68 -171.67,64.19l0 54.88c38.25,-0.68 68.74,7.94 91.43,25.89 22.68,17.94 34.03,43.49 34.03,76.62 0,32.43 -11.03,58.32 -33.06,77.66 -22.05,19.32 -50.59,28.99 -85.6,28.99l-111.85 0 0 -61.09 94.35 0c21.4,0 37.11,-3.46 47.17,-10.36 10.06,-6.9 15.06,-18.63 15.06,-35.2 0,-15.88 -5,-27.26 -15.06,-34.16 -10.06,-6.91 -25.77,-10.37 -47.17,-10.37l-48.64 0 0 -112.86c-59,-4.14 -112.33,-22.25 -160,-54.35 -47.66,-32.09 -85.1,-75.25 -112.35,-129.43 -27.22,-54.18 -40.84,-115.09 -40.84,-182.74 0,-70.42 14.92,-133.74 44.73,-190.01 29.84,-56.25 70.53,-100.26 122.08,-132.01 51.56,-31.76 108.77,-47.63 171.67,-47.63 73.93,0 138.44,18.98 193.56,56.94 55.11,37.97 95.31,91.81 120.61,161.53l-106.03 0c-18.79,-43.48 -45.86,-76.97 -81.22,-100.43 -35.31,-23.47 -77.64,-35.21 -126.92,-35.21 -47.34,0 -89.8,11.74 -127.41,35.21 -37.61,23.46 -67.12,56.76 -88.53,99.92 -21.37,43.14 -32.09,93.7 -32.09,151.69 0,57.28 10.72,107.51 32.09,150.65 21.41,43.14 50.92,76.43 88.53,99.91 37.61,23.46 80.07,35.2 127.41,35.2zm1135.18 -84.9l-295.69 0 -54.47 160.49 -93.38 0 245.12 -717.54 102.12 0 244.13 717.54 -93.36 0 -54.47 -160.49zm-25.29 -76.62l-122.57 -364.46 -122.54 364.46 245.11 0zm-265.55 -541.53c4.55,-35.2 15.42,-62.12 32.59,-80.76 17.18,-18.63 38.74,-27.96 64.68,-27.96 12.33,0 22.85,2.26 31.62,6.74 8.75,4.49 19.29,10.87 31.6,19.15 9.08,6.9 17.2,12.26 24.31,16.05 7.14,3.8 14.93,5.7 23.36,5.7 11.02,0 20.42,-3.8 28.19,-11.39 7.8,-7.6 12.66,-18.64 14.61,-33.13l50.56 0c-3.88,34.51 -14.58,61.09 -32.07,79.72 -17.53,18.64 -39.24,27.97 -65.19,27.97 -12.32,0 -23.18,-2.26 -32.59,-6.74 -9.4,-4.49 -19.93,-11.21 -31.59,-20.18 -10.38,-6.91 -18.66,-12.1 -24.81,-15.54 -6.16,-3.46 -13.46,-5.17 -21.89,-5.17 -11.02,0 -20.27,3.79 -27.71,11.38 -7.47,7.6 -12.17,18.98 -14.12,34.16l-51.55 0zm1142.01 785.88c-62.9,0 -120.29,-15.69 -172.18,-47.1 -51.86,-31.4 -92.87,-75.24 -123.03,-131.5 -30.15,-56.26 -45.23,-119.6 -45.23,-189.99 0,-70.42 15.08,-133.74 45.23,-190.01 30.16,-56.25 71.17,-100.09 123.03,-131.5 51.89,-31.4 109.28,-47.11 172.18,-47.11 63.55,0 121.24,15.71 173.13,47.11 51.87,31.41 92.72,75.08 122.54,130.99 29.82,55.91 44.75,119.4 44.75,190.52 0,71.09 -14.93,134.6 -44.75,190.51 -29.82,55.91 -70.67,99.58 -122.54,130.98 -51.89,31.41 -109.58,47.1 -173.13,47.1zm0 -81.79c47.33,0 89.96,-11.73 127.89,-35.2 37.94,-23.48 67.77,-56.95 89.5,-100.44 21.71,-43.48 32.58,-93.88 32.58,-151.16 0,-57.99 -10.87,-108.55 -32.58,-151.69 -21.73,-43.16 -51.4,-76.46 -89.01,-99.92 -37.61,-23.47 -80.41,-35.21 -128.38,-35.21 -47.99,0 -90.79,11.74 -128.4,35.21 -37.6,23.46 -67.27,56.76 -89,99.92 -21.72,43.14 -32.59,93.7 -32.59,151.69 0,57.28 10.87,107.68 32.59,151.16 21.73,43.49 51.55,76.96 89.48,100.44 37.95,23.47 80.58,35.2 127.92,35.2zm1825.75 -647.12l-255.8 721.67 -102.14 0 -255.81 -721.67 94.37 0 212.99 622.26 213.01 -622.26 93.38 0zm474.74 0l0 721.67 -88.5 0 0 -721.67 88.5 0zm654.69 728.91c-44.74,0 -84.79,-8.44 -120.12,-25.36 -35.35,-16.91 -63.05,-40.39 -83.17,-70.41 -20.09,-30.03 -30.47,-64.72 -31.11,-104.06l94.35 0c3.22,33.83 16.35,62.29 39.39,85.43 23,23.12 56.57,34.68 100.66,34.68 42.15,0 75.38,-11.22 99.71,-33.64 24.31,-22.45 36.47,-51.27 36.47,-86.47 0,-27.61 -7.14,-50.04 -21.41,-67.31 -14.25,-17.25 -32.09,-30.36 -53.48,-39.33 -21.41,-8.98 -50.27,-18.65 -86.59,-29 -44.73,-12.43 -80.55,-24.85 -107.46,-37.26 -26.92,-12.44 -49.94,-31.93 -69.06,-58.51 -19.13,-26.58 -28.7,-62.31 -28.7,-107.16 0,-39.35 9.4,-74.21 28.19,-104.58 18.82,-30.38 45.25,-53.84 79.29,-70.41 34.03,-16.58 73.11,-24.85 117.2,-24.85 63.55,0 115.57,16.91 156.12,50.73 40.52,33.83 63.37,78.7 68.56,134.61l-97.27 0c-3.22,-27.62 -16.84,-51.94 -40.84,-73 -23.99,-21.05 -55.76,-31.58 -95.32,-31.58 -36.96,0 -67.11,10.18 -90.47,30.55 -23.34,20.36 -34.99,48.84 -34.99,85.41 0,26.24 6.95,47.63 20.9,64.21 13.94,16.55 31.12,29.16 51.55,37.79 20.42,8.62 49.12,18.46 86.09,29.5 44.73,13.11 80.73,26.06 107.95,38.83 27.23,12.77 50.59,32.45 70.04,59.02 19.46,26.58 29.18,62.64 29.18,108.2 0,35.2 -8.75,68.33 -26.28,99.39 -17.5,31.08 -43.42,56.27 -77.81,75.59 -34.36,19.34 -74.89,28.99 -121.57,28.99zm731.51 -728.91l0 456.6c0,64.21 14.76,111.82 44.27,142.9 29.5,31.06 70.52,46.58 123.04,46.58 51.87,0 92.57,-15.52 122.07,-46.58 29.5,-31.08 44.24,-78.69 44.24,-142.9l0 -456.6 88.53 0 0 455.56c0,60.06 -11.35,110.62 -34.06,151.69 -22.68,41.07 -53.32,71.62 -91.91,91.64 -38.57,20.01 -81.87,30.02 -129.84,30.02 -47.99,0 -91.28,-10.01 -129.85,-30.02 -38.59,-20.02 -69.06,-50.57 -91.44,-91.64 -22.37,-41.07 -33.55,-91.63 -33.55,-151.69l0 -455.56 88.5 0zm1259.7 561.18l-295.69 0 -54.47 160.49 -93.38 0 245.12 -717.54 102.12 0 244.14 717.54 -93.37 0 -54.47 -160.49zm-25.29 -76.62l-122.56 -364.46 -122.56 364.46 245.12 0zm657.6 160.49l237.34 0 0 76.62 -325.85 0 0 -721.67 88.51 0 0 645.05z"/>
   <g>
    <path class="fil1" d="M13020.11 2570.95c54.41,20.41 245.27,31.97 316.55,1.92 1.73,-0.15 4.91,-1.41 6.42,-1.66l-0.8 -5.99c26.39,-27.45 52.23,-57.76 75.06,-94.82 24.3,-39.46 45.11,-86.47 59.38,-145.54 21.99,-91.18 22.53,-212.99 4.03,-327.9 -17.48,-108.66 -52,-211.34 -101.46,-276.39l-23.13 -30.16c-90.55,-117.67 -139.45,-181.15 -120.62,-393.04l0.67 -7.56 -7.35 2.51c-37.02,12.71 -77.03,48.94 -113,93.16 -43.89,53.97 -82.04,120.04 -101.36,169.52 -24.68,63.11 -38.15,150.57 -43.88,242.32 -7.01,112.1 -2.51,230.78 7.09,319.23 -13.7,-6.87 -25.51,-16.47 -35.96,-27.82 -12.59,-13.7 -23.29,-29.96 -32.96,-47.17 -9.64,-17.12 -17.01,-33.36 -23.22,-50.84 -6.24,-17.58 -11.4,-36.59 -16.62,-59.11l-2.4 -10.3 -6.53 8.41c-26.41,34.13 -38.05,92.11 -40.2,154.5 -2.72,79.23 9.81,165.99 26.68,219.58 40.24,127.74 74.4,163.59 133.96,226.19 11.18,11.74 23.28,24.45 35.92,38.25l1.46 1.62 1.28 0.02 0.99 1.07z"/>
    <path class="fil2" d="M12741.96 1326.37c1.95,-92.51 -13.81,-166.85 -53.83,-235.85 -29.81,-51.38 -93.41,-128.15 -139.14,-151.15 39.85,228.98 -5.99,263.01 -68.77,492.84 -64.78,237.16 -83.65,540.07 29.89,769.85 53.85,108.97 116.85,173.78 203.32,238.38 78.57,58.7 208.27,118.08 306.69,130.52 -82.61,-90.72 -121.45,-112.83 -168.81,-263.85 -29.84,-95.16 -45.94,-295.26 12.73,-371.41 10.5,45.49 20.82,76.97 40.33,111.75 19.72,35.21 43.56,66.6 79.3,81.13 -18.32,-160.2 -19.93,-428.05 35.52,-570.58 34.79,-89.46 131.02,-233.33 211.33,-261.02 -20.53,232.21 38.77,288.54 144.74,428.55 100.83,133.23 139.07,426.08 96.55,603.05 -28.27,117.67 -82.37,187.02 -138.34,244.54 141.85,-10.24 286.6,-114.51 391.84,-204.23 102.9,-87.71 187.77,-241.95 225.65,-385.6 64.99,-246.28 32.65,-547.43 -78.12,-775.01 -22.85,-46.93 -91.9,-168.82 -119.3,-187.36 11.79,102.22 21.58,184.29 6.75,289.54 -8.59,60.91 -45.07,196.07 -84.36,220.81 -21.47,-290.83 -96,-411.41 -259.44,-615.41 -184.28,-230.02 -174.27,-530.47 -94.89,-797.57 -148.41,44.72 -364.47,376.59 -392.63,542.45 -19.97,117.71 -35.71,280.16 -60.83,401.89 -12.88,62.46 -69.22,237.04 -126.18,263.74z"/>
   </g>
  </g>
 </g>
</svg>
