<?xml version="1.0" encoding="UTF-8"?>
<!DOCTYPE svg PUBLIC "-//W3C//DTD SVG 1.1//EN" "http://www.w3.org/Graphics/SVG/1.1/DTD/svg11.dtd">
<!-- Creator: CorelDRAW 2020 -->
<svg xmlns="http://www.w3.org/2000/svg" xml:space="preserve" width="200mm" height="100mm" version="1.1" style="shape-rendering:geometricPrecision; text-rendering:geometricPrecision; image-rendering:optimizeQuality; fill-rule:evenodd; clip-rule:evenodd"
viewBox="0 0 20000 10000"
 xmlns:xlink="http://www.w3.org/1999/xlink"
 xmlns:xodm="http://www.corel.com/coreldraw/odm/2003">
 <defs>
  <style type="text/css">
   <![CDATA[
    .fil1 {fill:#F4A256}
    .fil0 {fill:#EBF2FA;fill-rule:nonzero}
    .fil2 {fill:url(#id0)}
   ]]>
  </style>
  <linearGradient id="id0" gradientUnits="userSpaceOnUse" x1="14776.86" y1="4067.5" x2="15968.64" y2="2100.72">
   <stop offset="0" style="stop-opacity:1; stop-color:#E67738"/>
   <stop offset="0.45098" style="stop-opacity:1; stop-color:#F0954F"/>
   <stop offset="1" style="stop-opacity:1; stop-color:#FBB467"/>
  </linearGradient>
 </defs>
 <g id="Camada_x0020_1">
  <metadata id="CorelCorpID_0Corel-Layer"/>
  <g id="_-1149567184">
   <path class="fil0" d="M2027.47 3541.33l0 2765.21 812.76 0 0 -1345.24 873.47 0 0 -485.78 -873.47 0 0 -780.05c0,-182.17 130.78,-312.96 312.95,-312.96l700.65 0 0 -485.77 -1181.75 0c-368.98,0 -644.61,275.61 -644.61,644.59zm2847.36 2765.21l1181.75 0 0 -485.78 -700.64 0c-182.1,0 -312.94,-130.78 -312.94,-312.95l0 -2611.07 -812.76 0 0 2765.21c0,368.94 275.59,644.59 644.59,644.59zm3048.21 -3409.8l-1536.76 0 0 3409.8 812.76 0 0 -1064.98 602.56 0 0 1064.98 812.74 0 0 -2718.5c0,-397.03 -294.36,-691.3 -691.3,-691.3zm-724 1859.05l0 -1373.28 340.97 0c149.47,0 261.59,112.21 261.59,261.58l0 1111.7 -602.56 0zm3258.4 1583.46l831.43 -1952.47 0 1919.76 812.75 0 0 -3409.8 -420.39 0c-200.73,0 -387.22,107.76 -462.43,284.92l-630.58 1485.38 -644.6 -1485.38c-74.94,-172.72 -261.68,-284.92 -462.42,-284.92l-467.09 0 0 3409.8 611.9 0 0 -1919.76 831.43 1952.47zm2688.53 -32.71l1181.76 0 0 -485.78 -700.64 0c-182.03,0 -312.96,-130.78 -312.96,-312.95l0 -780.05 966.89 0 0 -485.79 -966.89 0 0 -859.46 1013.6 0 0 -485.77 -1826.35 0 0 2765.21c0,368.86 275.59,644.59 644.59,644.59zm3050.35 -3409.8l0 485.77 546.94 0 -1616.83 2400.89c-94.92,140.95 -116.78,266.32 -116.78,495.12l0 28.02 2717.95 0 0 -485.78 -1682.85 0 1926.38 -2924.02 -1774.81 0z"/>
   <path class="fil0" d="M2011.99 7535.6c0,-71.17 15.09,-135.18 45.21,-192.05 30.16,-56.85 71.29,-101.32 123.4,-133.42 52.1,-32.1 109.93,-48.14 173.51,-48.14 74.72,0 139.92,19.18 195.62,57.55 55.71,38.37 96.34,92.79 121.91,163.26l-107.16 0c-19,-43.94 -46.36,-77.79 -82.09,-101.5 -35.72,-23.73 -78.49,-35.59 -128.28,-35.59 -47.86,0 -90.79,11.86 -128.78,35.59 -38.01,23.71 -67.84,57.37 -89.48,100.98 -21.6,43.61 -32.44,94.72 -32.44,153.32 0,57.9 10.84,108.66 32.44,152.26 21.64,43.61 51.47,77.26 89.48,100.99 37.99,23.71 80.92,35.58 128.78,35.58 49.79,0 92.56,-11.68 128.28,-35.07 35.73,-23.36 63.09,-57.02 82.09,-100.98l107.16 0c-25.57,69.76 -66.2,123.67 -121.91,161.7 -55.7,38.01 -120.9,57.02 -195.62,57.02 -63.58,0 -121.41,-15.88 -173.51,-47.61 -52.11,-31.74 -93.24,-75.87 -123.4,-132.38 -30.12,-56.51 -45.21,-120.36 -45.21,-191.51zm1395.08 372.55c-63.58,0 -121.56,-15.86 -174.01,-47.62 -52.43,-31.73 -93.89,-76.03 -124.36,-132.91 -30.46,-56.85 -45.7,-120.87 -45.7,-192.02 0,-71.17 15.24,-135.18 45.7,-192.05 30.47,-56.85 71.93,-101.15 124.36,-132.91 52.45,-31.73 110.43,-47.61 174.01,-47.61 64.22,0 122.55,15.88 175,47.61 52.41,31.76 93.71,75.89 123.84,132.4 30.16,56.51 45.23,120.68 45.23,192.56 0,71.85 -15.07,136.05 -45.23,192.56 -30.13,56.51 -71.43,100.64 -123.84,132.37 -52.45,31.76 -110.78,47.62 -175,47.62zm0 -82.68c47.83,0 90.93,-11.84 129.27,-35.57 38.34,-23.73 68.5,-57.56 90.44,-101.52 21.97,-43.94 32.94,-94.88 32.94,-152.78 0,-58.6 -10.97,-109.71 -32.94,-153.32 -21.94,-43.61 -51.93,-77.27 -89.94,-100.98 -38.01,-23.73 -81.27,-35.59 -129.77,-35.59 -48.49,0 -91.77,11.86 -129.76,35.59 -38.01,23.71 -68.01,57.37 -89.96,100.98 -21.95,43.61 -32.94,94.72 -32.94,153.32 0,57.9 10.99,108.84 32.94,152.78 21.95,43.96 52.1,77.79 90.44,101.52 38.34,23.73 81.42,35.57 129.28,35.57zm1449.15 -648.83l0 724.19 -89.47 0 0 -540.01 -226.09 540.01 -62.92 0 -227.11 -541.06 0 541.06 -89.45 0 0 -724.19 96.36 0 251.64 598.6 251.68 -598.6 95.36 0zm530.95 -5.22l0 461.49c0,64.9 14.92,113.03 44.75,144.44 29.82,31.39 71.27,47.08 124.36,47.08 52.43,0 93.56,-15.69 123.37,-47.08 29.82,-31.41 44.72,-79.54 44.72,-144.44l0 -461.49 89.48 0 0 460.45c0,60.69 -11.47,111.8 -34.43,153.31 -22.94,41.51 -53.89,72.39 -92.89,92.62 -39.01,20.23 -82.74,30.35 -131.23,30.35 -48.51,0 -92.26,-10.12 -131.25,-30.35 -39,-20.23 -69.8,-51.11 -92.41,-92.62 -22.62,-41.51 -33.91,-92.62 -33.91,-153.31l0 -460.45 89.44 0zm1406.91 729.41l-89.48 0 -359.81 -580.82 0 580.82 -89.45 0 0 -730.48 89.45 0 359.81 579.79 0 -579.79 89.48 0 0 730.48zm533.88 -729.41l0 729.41 -89.44 0 0 -729.41 89.44 0zm411.04 364.18c0,-71.17 15.08,-135.18 45.2,-192.05 30.16,-56.85 71.29,-101.32 123.39,-133.42 52.11,-32.1 109.94,-48.14 173.51,-48.14 74.72,0 139.93,19.18 195.63,57.55 55.71,38.37 96.34,92.79 121.9,163.26l-107.15 0c-19,-43.94 -46.36,-77.79 -82.09,-101.5 -35.7,-23.73 -78.48,-35.59 -128.29,-35.59 -47.85,0 -90.76,11.86 -128.77,35.59 -38.01,23.71 -67.85,57.37 -89.48,100.98 -21.61,43.61 -32.44,94.72 -32.44,153.32 0,57.9 10.83,108.66 32.44,152.26 21.63,43.61 51.47,77.26 89.48,100.99 38.01,23.71 80.92,35.58 128.77,35.58 49.81,0 92.59,-11.68 128.29,-35.07 35.73,-23.36 63.09,-57.02 82.09,-100.98l107.15 0c-25.56,69.76 -66.19,123.67 -121.9,161.7 -55.7,38.01 -120.91,57.02 -195.63,57.02 -63.57,0 -121.4,-15.88 -173.51,-47.61 -52.1,-31.74 -93.23,-75.87 -123.39,-132.38 -30.12,-56.51 -45.2,-120.36 -45.2,-191.51zm1489.45 203.01l-298.86 0 -55.05 162.22 -94.39 0 247.75 -725.23 103.21 0 246.76 725.23 -94.37 0 -55.05 -162.22zm-25.57 -77.44l-123.85 -368.37 -123.88 368.37 247.73 0zm883.89 163.26c49.81,0 92.59,-11.68 128.28,-35.07 35.74,-23.36 63.1,-57.02 82.1,-100.98l107.15 0c-23.59,64.19 -60.12,115.11 -109.61,152.8 -49.48,37.67 -107.32,59.3 -173.51,64.88l0 55.46c38.67,-0.69 69.48,8.02 92.42,26.16 22.92,18.14 34.39,43.96 34.39,77.45 0,32.78 -11.14,58.94 -33.42,78.49 -22.28,19.53 -51.12,29.3 -86.51,29.3l-113.06 0 0 -61.74 95.37 0c21.63,0 37.51,-3.5 47.68,-10.47 10.16,-6.98 15.22,-18.83 15.22,-35.58 0,-16.05 -5.06,-27.55 -15.22,-34.53 -10.17,-6.98 -26.05,-10.48 -47.68,-10.48l-49.16 0 0 -114.06c-59.63,-4.19 -113.54,-22.5 -161.71,-54.94 -48.18,-32.44 -86.02,-76.05 -113.56,-130.82 -27.51,-54.76 -41.28,-116.33 -41.28,-184.7 0,-71.17 15.09,-135.18 45.21,-192.05 30.16,-56.85 71.29,-101.32 123.39,-133.42 52.11,-32.1 109.94,-48.14 173.51,-48.14 74.72,0 139.93,19.18 195.63,57.55 55.71,38.37 96.34,92.79 121.9,163.26l-107.15 0c-19,-43.94 -46.36,-77.79 -82.1,-101.5 -35.69,-23.73 -78.47,-35.59 -128.28,-35.59 -47.85,0 -90.76,11.86 -128.77,35.59 -38.02,23.71 -67.85,57.37 -89.49,100.98 -21.6,43.61 -32.43,94.72 -32.43,153.32 0,57.9 10.83,108.66 32.43,152.26 21.64,43.61 51.47,77.26 89.49,100.99 38.01,23.71 80.92,35.58 128.77,35.58zm1147.35 -85.82l-298.86 0 -55.05 162.22 -94.39 0 247.75 -725.23 103.21 0 246.76 725.23 -94.37 0 -55.05 -162.22zm-25.57 -77.44l-123.87 -368.37 -123.86 368.37 247.73 0zm-268.39 -547.33c4.6,-35.58 15.59,-62.78 32.94,-81.63 17.37,-18.82 39.16,-28.25 65.37,-28.25 12.47,0 23.1,2.28 31.96,6.8 8.85,4.55 19.5,10.99 31.94,19.36 9.18,6.98 17.39,12.4 24.57,16.22 7.22,3.84 15.09,5.76 23.61,5.76 11.15,0 20.64,-3.84 28.5,-11.5 7.88,-7.68 12.79,-18.85 14.76,-33.49l51.11 0c-3.93,34.88 -14.75,61.74 -32.42,80.57 -17.71,18.84 -39.66,28.27 -65.89,28.27 -12.45,0 -23.42,-2.28 -32.94,-6.81 -9.5,-4.54 -20.14,-11.33 -31.92,-20.4 -10.5,-6.98 -18.86,-12.22 -25.09,-15.7 -6.22,-3.5 -13.59,-5.23 -22.11,-5.23 -11.15,0 -20.49,3.84 -28.02,11.5 -7.54,7.68 -12.29,19.19 -14.26,34.53l-52.11 0zm1154.26 794.31c-63.58,0 -121.58,-15.86 -174.03,-47.62 -52.41,-31.73 -93.87,-76.03 -124.35,-132.91 -30.47,-56.85 -45.71,-120.87 -45.71,-192.02 0,-71.17 15.24,-135.18 45.71,-192.05 30.48,-56.85 71.94,-101.15 124.35,-132.91 52.45,-31.73 110.45,-47.61 174.03,-47.61 64.22,0 122.53,15.88 174.98,47.61 52.43,31.76 93.72,75.89 123.86,132.4 30.14,56.51 45.23,120.68 45.23,192.56 0,71.85 -15.09,136.05 -45.23,192.56 -30.14,56.51 -71.43,100.64 -123.86,132.37 -52.45,31.76 -110.76,47.62 -174.98,47.62zm0 -82.68c47.83,0 90.92,-11.84 129.25,-35.57 38.36,-23.73 68.5,-57.56 90.46,-101.52 21.95,-43.94 32.94,-94.88 32.94,-152.78 0,-58.6 -10.99,-109.71 -32.94,-153.32 -21.96,-43.61 -51.95,-77.27 -89.96,-100.98 -38.01,-23.73 -81.27,-35.59 -129.75,-35.59 -48.51,0 -91.77,11.86 -129.78,35.59 -38.01,23.71 -68,57.37 -89.96,100.98 -21.94,43.61 -32.93,94.72 -32.93,153.32 0,57.9 10.99,108.84 32.93,152.78 21.96,43.96 52.11,77.79 90.44,101.52 38.36,23.73 81.44,35.57 129.3,35.57zm1845.32 -654.05l-258.55 729.41 -103.23 0 -258.55 -729.41 95.38 0 215.27 628.93 215.3 -628.93 94.38 0zm479.83 0l0 729.41 -89.45 0 0 -729.41 89.45 0zm661.7 736.73c-45.21,0 -85.69,-8.54 -121.4,-25.64 -35.73,-17.09 -63.73,-40.82 -84.06,-71.17 -20.3,-30.34 -30.8,-65.4 -31.45,-105.16l95.36 0c3.26,34.18 16.53,62.95 39.81,86.34 23.25,23.37 57.18,35.04 101.74,35.04 42.61,0 76.2,-11.33 100.78,-33.99 24.57,-22.69 36.87,-51.82 36.87,-87.39 0,-27.92 -7.22,-50.58 -21.64,-68.04 -14.4,-17.43 -32.44,-30.69 -54.06,-39.76 -21.64,-9.07 -50.8,-18.84 -87.51,-29.3 -45.21,-12.57 -81.42,-25.12 -108.61,-37.67 -27.21,-12.56 -50.48,-32.26 -69.8,-59.13 -19.34,-26.87 -29.01,-62.97 -29.01,-108.31 0,-39.77 9.5,-75.01 28.49,-105.7 19.02,-30.7 45.73,-54.42 80.14,-71.17 34.39,-16.75 73.9,-25.11 118.46,-25.11 64.22,0 116.81,17.09 157.78,51.28 40.96,34.18 64.06,79.53 69.3,136.04l-98.31 0c-3.25,-27.91 -17.02,-52.49 -41.28,-73.77 -24.25,-21.28 -56.36,-31.93 -96.34,-31.93 -37.36,0 -67.83,10.29 -91.44,30.88 -23.59,20.58 -35.37,49.36 -35.37,86.33 0,26.52 7.03,48.14 21.13,64.89 14.09,16.74 31.46,29.48 52.1,38.2 20.64,8.71 49.65,18.66 87.01,29.82 45.21,13.25 81.6,26.33 109.11,39.24 27.52,12.91 51.13,32.8 70.8,59.65 19.66,26.87 29.49,63.32 29.49,109.37 0,35.58 -8.85,69.06 -26.56,100.46 -17.69,31.41 -43.89,56.87 -78.65,76.4 -34.73,19.54 -75.69,29.3 -122.88,29.3zm739.36 -736.73l0 461.49c0,64.9 14.92,113.03 44.75,144.44 29.81,31.39 71.27,47.08 124.35,47.08 52.43,0 93.56,-15.69 123.38,-47.08 29.82,-31.41 44.71,-79.54 44.71,-144.44l0 -461.49 89.49 0 0 460.45c0,60.69 -11.47,111.8 -34.43,153.31 -22.93,41.51 -53.89,72.39 -92.89,92.62 -38.99,20.23 -82.75,30.35 -131.23,30.35 -48.51,0 -92.26,-10.12 -131.25,-30.35 -39.01,-20.23 -69.8,-51.11 -92.41,-92.62 -22.62,-41.51 -33.92,-92.62 -33.92,-153.31l0 -460.45 89.45 0zm1273.21 567.19l-298.86 0 -55.06 162.22 -94.38 0 247.75 -725.23 103.21 0 246.76 725.23 -94.37 0 -55.05 -162.22zm-25.57 -77.44l-123.87 -368.37 -123.88 368.37 247.75 0zm664.66 162.21l239.87 0 0 77.45 -329.34 0 0 -729.41 89.47 0 0 651.96z"/>
   <g>
    <path class="fil1" d="M15074.02 4313.63c54.99,20.63 247.9,32.31 319.94,1.94 1.75,-0.15 4.97,-1.42 6.49,-1.67l-0.81 -6.07c26.68,-27.73 52.79,-58.37 75.87,-95.83 24.56,-39.88 45.59,-87.4 60.01,-147.1 22.23,-92.15 22.77,-215.28 4.08,-331.41 -17.66,-109.83 -52.56,-213.6 -102.55,-279.35l-23.38 -30.49c-91.52,-118.93 -140.95,-183.09 -121.91,-397.25l0.67 -7.64 -7.42 2.54c-37.42,12.84 -77.86,49.46 -114.21,94.15 -44.37,54.55 -82.92,121.33 -102.45,171.34 -24.95,63.78 -38.56,152.18 -44.35,244.91 -7.08,113.31 -2.54,233.26 7.16,322.66 -13.84,-6.95 -25.77,-16.65 -36.34,-28.12 -12.72,-13.84 -23.54,-30.28 -33.31,-47.67 -9.75,-17.31 -17.19,-33.73 -23.47,-51.39 -6.31,-17.77 -11.53,-36.98 -16.8,-59.75l-2.43 -10.41 -6.6 8.51c-26.69,34.49 -38.45,93.1 -40.62,156.15 -2.76,80.08 9.91,167.77 26.96,221.93 40.67,129.11 75.2,165.35 135.4,228.62 11.3,11.87 23.52,24.71 36.3,38.66l1.48 1.64 1.29 0.02 1 1.08z"/>
    <path class="fil2" d="M14792.88 3055.7c1.98,-93.5 -13.95,-168.63 -54.4,-238.37 -30.13,-51.93 -94.41,-129.52 -140.63,-152.77 40.27,231.43 -6.06,265.83 -69.51,498.13 -65.47,239.69 -84.55,545.85 30.22,778.1 54.42,110.14 118.09,175.63 205.5,240.93 79.41,59.33 210.49,119.35 309.97,131.92 -83.5,-91.69 -122.75,-114.04 -170.62,-266.68 -30.16,-96.18 -46.44,-298.43 12.86,-375.39 10.62,45.98 21.05,77.79 40.77,112.95 19.94,35.58 44.02,67.31 80.15,82 -18.52,-161.91 -20.15,-432.64 35.9,-576.7 35.16,-90.42 132.42,-235.83 213.6,-263.81 -20.76,234.69 39.18,291.62 146.28,433.14 101.91,134.66 140.57,430.64 97.59,609.52 -28.57,118.92 -83.25,189.01 -139.82,247.15 143.37,-10.34 289.67,-115.73 396.04,-206.42 104.01,-88.65 189.78,-244.54 228.07,-389.73 65.68,-248.92 33,-553.3 -78.96,-783.31 -23.09,-47.44 -92.89,-170.64 -120.57,-189.38 11.91,103.32 21.81,186.27 6.81,292.65 -8.68,61.56 -45.55,198.17 -85.26,223.17 -21.7,-293.95 -97.03,-415.82 -262.22,-622 -186.26,-232.49 -176.13,-536.16 -95.91,-806.12 -150,45.2 -368.37,380.62 -396.84,548.26 -20.18,118.97 -36.09,283.16 -61.48,406.21 -13.02,63.12 -69.97,239.57 -127.54,266.55z"/>
   </g>
  </g>
 </g>
</svg>
