<svg width="51" height="54" viewBox="0 0 51 54" fill="none" xmlns="http://www.w3.org/2000/svg">
<path d="M33.2286 15.9613C33.1662 15.774 33.0467 15.6109 32.887 15.4949C32.7273 15.3789 32.5353 15.3158 32.3379 15.3144H27.6786L26.2442 10.8894C26.1825 10.7018 26.0632 10.5385 25.9033 10.4227C25.7434 10.307 25.551 10.2446 25.3536 10.2446C25.1561 10.2446 24.9637 10.307 24.8038 10.4227C24.6439 10.5385 24.5246 10.7018 24.4629 10.8894L23.0286 15.3144H18.3692C18.1718 15.3158 17.9798 15.3789 17.8201 15.4949C17.6604 15.6109 17.541 15.774 17.4786 15.9613C17.4163 16.1504 17.4163 16.3545 17.4788 16.5435C17.5412 16.7325 17.6628 16.8965 17.8254 17.0113L21.5848 19.7488L20.1504 24.1738C20.0885 24.362 20.0878 24.565 20.1485 24.7536C20.2091 24.9423 20.3279 25.1069 20.4879 25.2238C20.6497 25.3381 20.843 25.3996 21.0411 25.3996C21.2392 25.3996 21.4324 25.3381 21.5942 25.2238L25.3536 22.4863L29.1129 25.2238C29.2761 25.3356 29.4683 25.3975 29.6661 25.4019C29.8643 25.4004 30.0573 25.3382 30.2192 25.2238C30.3792 25.1069 30.498 24.9423 30.5587 24.7536C30.6193 24.565 30.6186 24.362 30.5567 24.1738L29.1223 19.7488L32.8817 17.0113C33.0444 16.8965 33.1659 16.7325 33.2284 16.5435C33.2908 16.3545 33.2909 16.1504 33.2286 15.9613ZM27.4723 18.6331C27.3113 18.7494 27.1911 18.9134 27.1288 19.102C27.0666 19.2905 27.0654 19.4939 27.1254 19.6831L27.8848 22.0081L25.9067 20.5644C25.7455 20.4486 25.552 20.3863 25.3536 20.3863C25.1551 20.3863 24.9616 20.4486 24.8004 20.5644L22.8223 22.0081L23.5817 19.6831C23.6418 19.4939 23.6406 19.2905 23.5783 19.102C23.516 18.9134 23.3958 18.7494 23.2348 18.6331L21.2567 17.1894H23.7036C23.9016 17.1906 24.0948 17.1284 24.255 17.0121C24.4152 16.8957 24.5341 16.7312 24.5942 16.5425L25.3536 14.2175L26.1129 16.5425C26.1731 16.7312 26.2919 16.8957 26.4521 17.0121C26.6124 17.1284 26.8056 17.1906 27.0036 17.1894H29.4504L27.4723 18.6331Z" fill="#E38C49"/>
<path d="M25.3535 6.29541C22.1529 6.29452 19.0758 7.53005 16.7645 9.744C14.4532 11.958 13.0865 14.9792 12.9498 18.1768C12.8131 21.3744 13.9169 24.5013 16.0308 26.9044C18.1447 29.3076 21.1052 30.8012 24.2941 31.0735C24.6504 31.1017 24.9972 31.1204 25.3535 31.1204C25.6722 31.1204 26.0004 31.1017 26.3191 31.0735H26.4129V31.0642C29.6006 30.7919 32.56 29.2988 34.673 26.8965C36.786 24.4942 37.8894 21.3685 37.7527 18.1721C37.616 14.9757 36.2497 11.9556 33.9393 9.74256C31.6289 7.52948 28.5528 6.29447 25.3535 6.29541ZM34.5504 23.8454C34.5479 23.8454 34.5455 23.8464 34.5437 23.8482C34.542 23.8499 34.541 23.8523 34.541 23.8548C33.7024 25.3577 32.507 26.6312 31.0601 27.5631C29.6132 28.495 27.9593 29.0566 26.2441 29.1985L26.2347 29.2079H26.2254C25.6391 29.2656 25.0485 29.2625 24.4629 29.1985C22.1967 29.0054 20.0538 28.084 18.3547 26.5721C16.6556 25.0601 15.4915 23.0388 15.0365 20.8104C14.5814 18.582 14.8598 16.2661 15.8301 14.209C16.8004 12.152 18.4104 10.4642 20.4195 9.39806C22.4285 8.33192 24.7287 7.94467 26.9761 8.29421C29.2235 8.64375 31.2974 9.71131 32.8877 11.3373C34.4781 12.9632 35.4994 15.0603 35.7991 17.3148C36.0988 19.5694 35.6607 21.8605 34.5504 23.8454Z" fill="#E38C49"/>
<path d="M50.5535 46.1111L47.0285 40.6455C44.5066 36.7549 41.9879 32.858 39.4722 28.9549C39.6691 28.8799 39.8941 28.7955 40.1191 28.7205C40.6272 28.6187 41.1101 28.4172 41.5397 28.1275C41.9694 27.8378 42.3373 27.4658 42.6222 27.033C42.7815 26.5435 42.8428 26.0275 42.8026 25.5144C42.7624 25.0012 42.6215 24.501 42.3879 24.0424C42.1675 23.5626 42.0494 23.0422 42.041 22.5142C42.2732 22.063 42.5955 21.6642 42.9879 21.3424C43.4052 21.0263 43.7559 20.6309 44.0198 20.1788C44.2836 19.7266 44.4555 19.2268 44.5254 18.708C44.4565 18.1902 44.2851 17.6913 44.0211 17.2406C43.7571 16.7899 43.4058 16.3963 42.9879 16.083C42.5969 15.7561 42.275 15.3545 42.041 14.9017C42.0494 14.3738 42.1675 13.8534 42.3879 13.3736C42.6213 12.9166 42.7622 12.418 42.8024 11.9064C42.8426 11.3948 42.7814 10.8802 42.6222 10.3924C42.3365 9.96025 41.9684 9.58877 41.5388 9.2992C41.1093 9.00962 40.6268 8.80765 40.1191 8.70486C39.6142 8.57714 39.1395 8.35094 38.7222 8.03924C38.5148 7.56216 38.4002 7.04987 38.3847 6.52986C38.3989 6.01319 38.3109 5.49881 38.1259 5.0162C37.9409 4.53358 37.6625 4.09221 37.3066 3.71736C36.4106 3.18985 35.3422 3.03819 34.3348 3.29549C33.8245 3.40081 33.2981 3.40081 32.7879 3.29549C32.3952 2.96653 32.0731 2.56153 31.841 2.10486C31.6278 1.62645 31.3216 1.19523 30.9401 0.836307C30.5587 0.477386 30.1096 0.197939 29.6191 0.0142368C29.1112 -0.0294304 28.5996 0.0275916 28.1138 0.182033C27.6279 0.336475 27.1774 0.585298 26.7879 0.914237C26.362 1.23879 25.8737 1.47179 25.3535 1.59861C24.8333 1.47179 24.345 1.23879 23.9191 0.914237C23.5311 0.586022 23.0821 0.337583 22.5978 0.183147C22.1136 0.0287108 21.6037 -0.0286883 21.0972 0.0142368C20.6047 0.196324 20.1536 0.475087 19.7704 0.834123C19.3872 1.19316 19.0797 1.62521 18.866 2.10486C18.6335 2.5587 18.3151 2.96306 17.9285 3.29549C17.4151 3.40066 16.8857 3.40066 16.3722 3.29549C15.3679 3.03807 14.3024 3.18981 13.4097 3.71736C13.0499 4.09175 12.7684 4.53417 12.5816 5.01871C12.3949 5.50326 12.3067 6.02019 12.3222 6.53924C12.3127 7.05798 12.1945 7.56896 11.9754 8.03924C11.5666 8.35146 11.0973 8.57497 10.5972 8.69549C9.56943 8.90332 8.66592 9.51015 8.08475 10.383C7.92545 10.8724 7.86415 11.3885 7.90437 11.9016C7.94458 12.4148 8.08552 12.915 8.31912 13.3736C8.53948 13.8534 8.65761 14.3738 8.666 14.9017C8.43199 15.3545 8.1101 15.7561 7.71912 16.083C7.30119 16.3963 6.94994 16.7899 6.68594 17.2406C6.42194 17.6913 6.25049 18.1902 6.18162 18.708C6.25153 19.2268 6.42336 19.7266 6.68723 20.1788C6.9511 20.6309 7.30179 21.0263 7.71912 21.3424C8.11152 21.6642 8.43378 22.063 8.666 22.5142C8.65761 23.0422 8.53948 23.5626 8.31912 24.0424C8.08569 24.4994 7.94483 24.998 7.90461 25.5096C7.86439 26.0212 7.9256 26.5357 8.08475 27.0236C8.36819 27.4578 8.7357 27.8307 9.16561 28.1206C9.59552 28.4104 10.0791 28.6112 10.5879 28.7111C10.8035 28.7955 11.0285 28.8705 11.2347 28.9549C8.71287 32.8549 6.19412 36.7517 3.6785 40.6455L0.153497 46.1111C0.0518192 46.2643 -0.00163305 46.4444 3.8018e-05 46.6282C0.00170909 46.812 0.058427 46.9911 0.162873 47.1424C0.264727 47.2936 0.408785 47.4115 0.577135 47.4815C0.745485 47.5515 0.930699 47.5705 1.10975 47.5361L7.51287 46.3455L9.06912 52.683C9.11431 52.8601 9.21026 53.02 9.34518 53.1433C9.48009 53.2666 9.64808 53.3477 9.8285 53.3767C9.87781 53.3876 9.92803 53.3939 9.9785 53.3955C10.1356 53.3965 10.2904 53.3575 10.4282 53.282C10.566 53.2066 10.6823 53.0972 10.766 52.9642L20.8722 37.3174C20.9472 37.3361 21.0129 37.383 21.0879 37.4017C21.2415 37.4384 21.3987 37.4572 21.5566 37.458C22.4172 37.3631 23.2348 37.0322 23.9191 36.5017C24.345 36.1772 24.8333 35.9442 25.3535 35.8174C25.8737 35.9442 26.362 36.1772 26.7879 36.5017C27.1776 36.8333 27.6296 37.0837 28.1174 37.2382C28.6052 37.3927 29.1189 37.4483 29.6285 37.4017C29.7035 37.383 29.7691 37.3361 29.8347 37.3174L39.941 52.9642C40.0247 53.0972 40.141 53.2066 40.2788 53.282C40.4166 53.3575 40.5714 53.3965 40.7285 53.3955C40.779 53.3939 40.8292 53.3876 40.8785 53.3767C41.0589 53.3477 41.2269 53.2666 41.3618 53.1433C41.4967 53.02 41.5927 52.8601 41.6379 52.683L43.1941 46.3455L49.5972 47.5361C49.7763 47.5695 49.9611 47.5501 50.1293 47.4802C50.2974 47.4103 50.4416 47.2929 50.5441 47.1424C50.6486 46.9911 50.7053 46.812 50.707 46.6282C50.7086 46.4444 50.6552 46.2643 50.5535 46.1111ZM10.3722 50.1142L9.12537 45.0424C9.06936 44.8097 8.92649 44.6073 8.72604 44.4765C8.52559 44.3458 8.28274 44.2967 8.04725 44.3392L2.90975 45.2955L5.2535 41.6674C7.59725 38.0299 9.94725 34.3924 12.3035 30.7549C12.3137 30.798 12.32 30.8419 12.3222 30.8861C12.3081 31.4028 12.3961 31.9172 12.5811 32.3998C12.7661 32.8824 13.0445 33.3238 13.4004 33.6986C14.2966 34.2256 15.3648 34.3773 16.3722 34.1205C16.8825 34.0152 17.4089 34.0152 17.9191 34.1205C18.314 34.4473 18.6365 34.8528 18.866 35.3111C19.0441 35.583 19.2222 35.8549 19.4097 36.1174L10.3722 50.1142ZM29.4785 35.3861C29.4027 35.4721 29.3058 35.5367 29.1972 35.5736C28.9347 35.6299 28.241 35.208 27.791 34.9174C27.0861 34.37 26.2414 34.0321 25.3535 33.9424C24.4656 34.0321 23.6209 34.37 22.916 34.9174C22.466 35.208 21.7722 35.6392 21.5191 35.583C21.4042 35.539 21.3014 35.4683 21.2191 35.3767C20.9288 35.0518 20.6742 34.6967 20.4597 34.3174C20.0718 33.5436 19.4782 32.8916 18.7441 32.433C18.318 32.239 17.8528 32.1459 17.3847 32.1611C16.977 32.169 16.5701 32.2003 16.166 32.2549C15.5847 32.3205 14.7972 32.4142 14.5722 32.2361C14.3472 32.058 14.2535 31.2611 14.1879 30.6799C14.1765 29.802 13.9199 28.9447 13.4472 28.2049C13.3726 28.1113 13.2877 28.0263 13.1941 27.9517C13.1583 27.9214 13.1208 27.8932 13.0816 27.8674L13.0722 27.858H13.0629C12.5024 27.4481 11.874 27.1403 11.2066 26.9486C10.6535 26.7517 9.9035 26.4892 9.77225 26.208C9.641 25.9455 9.9035 25.2049 10.091 24.6611C10.4665 23.8638 10.6064 22.9758 10.4941 22.1017C10.2188 21.2807 9.71466 20.5553 9.041 20.0111C8.6285 19.5986 8.05662 19.0267 8.05662 18.708C8.05662 18.3892 8.6285 17.8174 9.041 17.4049C9.71466 16.8607 10.2188 16.1353 10.4941 15.3142C10.6064 14.4401 10.4665 13.5521 10.091 12.7549C9.9035 12.2111 9.641 11.4705 9.77225 11.1986C9.9035 10.9267 10.6629 10.6642 11.216 10.4674C12.0611 10.2687 12.8319 9.83283 13.4379 9.21111C13.9175 8.47741 14.1777 7.62201 14.1879 6.74549C14.2535 6.16424 14.3379 5.37674 14.5722 5.18924C14.8066 5.00174 15.5847 5.09549 16.166 5.16111C17.0251 5.34413 17.9183 5.28241 18.7441 4.98299C19.4804 4.52703 20.0747 3.87436 20.4597 3.09861C20.7691 2.59236 21.2004 1.90799 21.5097 1.84236C21.7722 1.77674 22.466 2.21736 22.916 2.49861C23.6209 3.04595 24.4656 3.38384 25.3535 3.47361C26.2414 3.38384 27.0861 3.04595 27.791 2.49861C28.241 2.21736 28.9254 1.78611 29.1972 1.84236C29.5066 1.90799 29.9379 2.59236 30.2472 3.09861C30.6323 3.87436 31.2266 4.52703 31.9629 4.98299C32.7887 5.28241 33.6819 5.34413 34.541 5.16111C35.1222 5.09549 35.9097 5.00174 36.1347 5.17986C36.3597 5.35799 36.4535 6.15486 36.5191 6.73611C36.5305 7.61401 36.7871 8.47124 37.2597 9.21111C37.8747 9.8328 38.6505 10.271 39.5004 10.4767C40.0535 10.6642 40.8035 10.9267 40.9347 11.208C41.066 11.4705 40.8035 12.2111 40.616 12.7549C40.2405 13.5521 40.1006 14.4401 40.2129 15.3142C40.4882 16.1353 40.9923 16.8607 41.666 17.4049C42.0785 17.8174 42.6504 18.3892 42.6504 18.708C42.6504 19.0267 42.0785 19.5986 41.666 20.0111C40.9923 20.5553 40.4882 21.2807 40.2129 22.1017C40.1006 22.9758 40.2405 23.8638 40.616 24.6611C40.8035 25.2049 41.066 25.9455 40.9347 26.2174C40.8035 26.4892 40.0441 26.7611 39.5004 26.9486C38.7983 27.1404 38.1396 27.465 37.5597 27.9049C37.4558 27.9978 37.3587 28.098 37.2691 28.2049C36.7895 28.9386 36.5293 29.794 36.5191 30.6705C36.4535 31.2517 36.3691 32.0392 36.1347 32.2267C35.9004 32.4142 35.1222 32.3205 34.541 32.2549C33.6822 32.0672 32.7877 32.129 31.9629 32.433C31.2288 32.8916 30.6352 33.5436 30.2472 34.3174C30.0306 34.7005 29.7728 35.0588 29.4785 35.3861ZM42.6597 44.3392C42.4243 44.2967 42.1814 44.3458 41.981 44.4765C41.7805 44.6073 41.6376 44.8097 41.5816 45.0424L40.3347 50.1142L31.2972 36.1174C31.4847 35.8549 31.6629 35.583 31.841 35.3111C32.0707 34.8555 32.3895 34.4507 32.7785 34.1205C33.2919 34.0153 33.8213 34.0153 34.3348 34.1205C35.3391 34.3779 36.4046 34.2262 37.2973 33.6986C37.6563 33.3256 37.9373 32.8847 38.124 32.4018C38.3108 31.9189 38.3994 31.4036 38.3847 30.8861C38.3864 30.8418 38.3927 30.7978 38.4035 30.7549C40.7566 34.3924 43.1066 38.0299 45.4535 41.6674L47.7972 45.2955L42.6597 44.3392Z" fill="#E38C49"/>
</svg>
