<svg width="123" height="111" viewBox="0 0 123 111" fill="none" xmlns="http://www.w3.org/2000/svg">
<path d="M105.375 85.0533H113.5C117.09 85.0533 120 82.4355 120 79.2059V32.4267C120 29.1973 117.09 26.5793 113.5 26.5793H9.5C5.91018 26.5793 3 29.1973 3 32.4267V79.2059C3 82.4355 5.91018 85.0533 9.5 85.0533H17.625" stroke="#EBF2FA" stroke-width="5" stroke-linecap="round" stroke-linejoin="round"/>
<path d="M22.5 55.8163C22.5 52.5868 25.4102 49.9689 29 49.9689H94C97.5899 49.9689 100.5 52.5868 100.5 55.8163V102.595C100.5 105.825 97.5899 108.443 94 108.443H29C25.4102 108.443 22.5 105.825 22.5 102.595V55.8163Z" stroke="#EBF2FA" stroke-width="5" stroke-linecap="round" stroke-linejoin="round"/>
<path d="M22.5 9.0371C22.5 5.8077 25.4102 3.1897 29 3.1897H94C97.5899 3.1897 100.5 5.8077 100.5 9.0371V26.5793H22.5V9.0371Z" stroke="#EBF2FA" stroke-width="5" stroke-linecap="round" stroke-linejoin="round"/>
<path d="M38.75 64.5874H84.25" stroke="#EBF2FA" stroke-width="5" stroke-linecap="round" stroke-linejoin="round"/>
<path d="M38.75 93.8245H84.25" stroke="#EBF2FA" stroke-width="5" stroke-linecap="round" stroke-linejoin="round"/>
<path d="M38.75 79.2059H84.25" stroke="#EBF2FA" stroke-width="5" stroke-linecap="round" stroke-linejoin="round"/>
</svg>
