<svg width="50" height="60" viewBox="0 0 50 60" fill="none" xmlns="http://www.w3.org/2000/svg">
<path d="M40.5051 34.7745L40.5052 34.7746L47.6861 52.1109L48.0842 53.072L47.085 52.7825L40.535 50.8846L40.5348 50.8845C40.3296 50.825 40.1102 50.9158 40.0071 51.1032L40.0071 51.1033L36.7174 57.0769L36.2156 57.9881L35.8175 57.027L28.1123 38.425L27.8778 37.8588L28.4796 37.7427C37.1423 36.0722 43.7058 28.4334 43.7058 19.2918C43.7059 8.93044 35.2756 0.5 24.9143 0.5C14.5529 0.5 6.12249 8.93044 6.12249 19.2918C6.12249 23.4888 7.50539 27.3677 9.83988 30.4993L10.0096 30.727L9.90094 30.9895L0.534845 53.6012C0.534836 53.6013 0.534826 53.6013 0.534817 53.6013C0.467536 53.7639 0.499376 53.9505 0.616594 54.0814L0.61668 54.0815C0.733805 54.2124 0.91591 54.2647 1.08488 54.2157L8.81244 51.9765L9.19664 51.8652L9.38959 52.2155L13.2704 59.2631C13.3512 59.4098 13.5052 59.5 13.6709 59.5L40.5051 34.7745ZM40.5051 34.7745C40.4085 34.5414 40.5191 34.2738 40.7528 34.1769C40.986 34.0803 41.2537 34.1911 41.3504 34.4245L49.2937 53.6012C49.3611 53.7639 49.3292 53.9505 49.2121 54.0814C49.0947 54.2125 48.9129 54.2647 48.7439 54.2158L48.6297 54.6099L48.7439 54.2158L41.0163 51.9765L40.6321 51.8652L40.4391 52.2155L36.5581 59.2632L36.5581 59.2633C36.4775 59.4098 36.3236 59.5 36.1578 59.5C36.1497 59.5 36.1416 59.4998 36.1331 59.4993L36.1321 59.4992C35.9566 59.4895 35.8022 59.3801 35.7349 59.2177L35.7349 59.2176L27.0773 38.3163L26.937 37.9775L26.5717 38.0095C26.0245 38.0575 25.4721 38.0834 24.9143 38.0834C19.5052 38.0834 14.6234 35.7857 11.1905 32.1137L10.6604 31.5466L10.3633 32.2638L2.14243 52.1109L1.74432 53.072L2.74352 52.7825L9.29348 50.8846L9.2937 50.8845C9.4986 50.8251 9.71825 50.9158 9.82148 51.1033L10.2549 50.8647L9.82149 51.1033L13.1109 57.0769L13.6127 57.9882L14.0108 57.027L20.6702 40.9501L20.2082 40.7588L20.6702 40.9501C20.7668 40.7167 21.0344 40.6059 21.2679 40.7025C21.5012 40.7992 21.6121 41.0667 21.5154 41.3002L14.0938 59.2175C14.0266 59.3797 13.8727 59.4891 13.6975 59.4993L40.5051 34.7745ZM24.9143 1.41489C15.0565 1.41489 7.03739 9.43403 7.03739 19.2918C7.03739 29.1496 15.0565 37.1686 24.9143 37.1686C34.772 37.1686 42.791 29.1495 42.791 19.2918C42.791 9.43403 34.772 1.41489 24.9143 1.41489Z" fill="#E38C49" stroke="#E38C49"/>
<path d="M35.5015 15.8516L35.5015 15.8518C35.5542 16.014 35.5124 16.1919 35.393 16.3136C35.393 16.3136 35.393 16.3136 35.393 16.3137L30.8164 20.9752L30.642 21.1529L30.6787 21.3992L31.6411 27.8605L31.6411 27.8605C31.6662 28.0291 31.5956 28.1976 31.4575 28.298C31.378 28.3558 31.2838 28.3854 31.1885 28.3854C31.1192 28.3854 31.0496 28.3696 30.9847 28.3373C30.9846 28.3373 30.9846 28.3373 30.9845 28.3373L25.1371 25.4252L24.9142 25.3142L24.6913 25.4252L18.8438 28.3373C18.6911 28.4132 18.5086 28.398 18.371 28.298C18.2329 28.1976 18.1622 28.029 18.1873 27.8604L18.1873 27.8604L19.1499 21.399L19.1865 21.1528L19.0121 20.9751L14.4355 16.3136L14.4355 16.3136C14.316 16.1919 14.2742 16.014 14.3269 15.8518C14.3796 15.6895 14.5181 15.5701 14.6862 15.542L14.6863 15.542L21.1287 14.4608L21.3743 14.4196L21.4894 14.1988L24.5085 8.40573C24.5873 8.25452 24.7438 8.15967 24.9142 8.15967C25.0847 8.15967 25.241 8.25448 25.3199 8.40572C25.3199 8.40573 25.3199 8.40573 25.3199 8.40573L28.3389 14.1988L28.454 14.4196L28.6995 14.4608L35.1421 15.542C35.1421 15.542 35.1421 15.542 35.1421 15.542C35.3104 15.5703 35.4489 15.6898 35.5015 15.8516ZM29.7035 21.0622L29.7035 21.0621C29.6823 20.9205 29.7289 20.7769 29.8295 20.6744C29.8295 20.6744 29.8295 20.6744 29.8295 20.6744L33.4531 16.9837L34.1252 16.2991L33.179 16.1403L28.078 15.2842L28.0779 15.2842C27.9366 15.2605 27.8145 15.1719 27.748 15.0445C27.748 15.0445 27.748 15.0444 27.748 15.0444L25.3576 10.4577L24.9142 9.6069L24.4708 10.4577L22.0804 15.0444L22.0804 15.0444C22.0141 15.1716 21.892 15.2603 21.7505 15.284L21.7504 15.2841L16.6495 16.1401L15.7033 16.2989L16.3755 16.9835L19.9991 20.6744L19.9991 20.6745C20.0996 20.7768 20.1462 20.9204 20.1251 21.0621L20.1251 21.0622L19.3629 26.1781L19.2216 27.127L20.0804 26.6993L24.7103 24.3937L24.7107 24.3935C24.7745 24.3616 24.8442 24.3456 24.9142 24.3456C24.9837 24.3456 25.0534 24.3615 25.1182 24.3937C25.1183 24.3937 25.1184 24.3938 25.1185 24.3938L29.7482 26.6993L30.607 27.127L30.4656 26.1781L29.7035 21.0622Z" fill="#E38C49" stroke="#E38C49"/>
<path d="M39.3518 20.7529L39.3524 20.753C39.6029 20.7862 39.779 21.0162 39.7458 21.2664C38.765 28.669 32.3881 34.2535 24.9144 34.2535C16.6648 34.2535 9.95239 27.5413 9.95239 19.2916C9.95239 11.0419 16.6648 4.32959 24.9144 4.32959C32.3881 4.32959 38.765 9.91409 39.7457 17.3166L39.7457 17.3167C39.7789 17.567 39.6028 17.797 39.3524 17.8302L39.3515 17.8303C39.1029 17.8637 38.872 17.6878 38.8388 17.4369L38.8388 17.4368C37.9177 10.4847 31.9324 5.24448 24.9144 5.24448C17.1684 5.24448 10.8673 11.5454 10.8673 19.2916C10.8673 27.0377 17.1684 33.3387 24.9144 33.3387C31.9323 33.3387 37.9177 28.0983 38.8388 21.1464L38.8388 21.1463C38.872 20.8954 39.1021 20.7195 39.3518 20.7529Z" fill="#E38C49" stroke="#E38C49"/>
</svg>
