<svg width="73" height="73" viewBox="0 0 73 73" fill="none" xmlns="http://www.w3.org/2000/svg">
<mask id="mask0_82_130" style="mask-type:alpha" maskUnits="userSpaceOnUse" x="0" y="0" width="73" height="73">
<rect width="73" height="73" fill="#D9D9D9"/>
</mask>
<g mask="url(#mask0_82_130)">
<path d="M53.3812 34.3359L44.7474 25.7022L46.9176 23.608L53.3812 30.0715L66.3083 17.1444L68.461 19.3147L53.3812 34.3359ZM27.3749 34.6279C24.8655 34.6279 22.7174 33.7344 20.9304 31.9475C19.1434 30.1605 18.2499 28.0123 18.2499 25.5029C18.2499 22.9936 19.1434 20.8454 20.9304 19.0584C22.7174 17.2714 24.8655 16.3779 27.3749 16.3779C29.8843 16.3779 32.0325 17.2714 33.8195 19.0584C35.6064 20.8454 36.4999 22.9936 36.4999 25.5029C36.4999 28.0123 35.6064 30.1605 33.8195 31.9475C32.0325 33.7344 29.8843 34.6279 27.3749 34.6279ZM6.08325 56.6222V51.6149C6.08325 50.3592 6.44876 49.1843 7.17977 48.0903C7.91129 46.9969 8.89502 46.1477 10.1309 45.5429C13.0013 44.1666 15.8734 43.1342 18.7472 42.4458C21.6211 41.7579 24.497 41.4139 27.3749 41.4139C30.2528 41.4139 33.1287 41.7579 36.0026 42.4458C38.8765 43.1342 41.7486 44.1666 44.6189 45.5429C45.8548 46.1477 46.8385 46.9969 47.5701 48.0903C48.3011 49.1843 48.6666 50.3592 48.6666 51.6149V56.6222H6.08325ZM9.12492 53.5806H45.6249V51.6149C45.6249 50.9401 45.4074 50.3065 44.9725 49.7138C44.538 49.1212 43.9365 48.6201 43.168 48.2105C40.6647 46.9979 38.0836 46.0689 35.4247 45.4236C32.7658 44.7782 30.0825 44.4556 27.3749 44.4556C24.6673 44.4556 21.9841 44.7782 19.3251 45.4236C16.6662 46.0689 14.0851 46.9979 11.5818 48.2105C10.8133 48.6201 10.2118 49.1212 9.77736 49.7138C9.3424 50.3065 9.12492 50.9401 9.12492 51.6149V53.5806ZM27.3749 31.5863C29.0478 31.5863 30.48 30.9906 31.6713 29.7993C32.8626 28.608 33.4583 27.1758 33.4583 25.5029C33.4583 23.83 32.8626 22.3979 31.6713 21.2066C30.48 20.0153 29.0478 19.4196 27.3749 19.4196C25.702 19.4196 24.2699 20.0153 23.0786 21.2066C21.8872 22.3979 21.2916 23.83 21.2916 25.5029C21.2916 27.1758 21.8872 28.608 23.0786 29.7993C24.2699 30.9906 25.702 31.5863 27.3749 31.5863Z" fill="#E38C49"/>
</g>
</svg>
