<svg width="72" height="58" viewBox="0 0 72 58" fill="none" xmlns="http://www.w3.org/2000/svg">
<path d="M65.25 0H6.75C3.02175 0 0 2.99592 0 6.69231V42.3846C0 46.081 3.02175 49.0769 6.75 49.0769H27V55.7692H23.625C23.004 55.7692 22.5 56.2689 22.5 56.8846C22.5 57.5003 23.004 58 23.625 58H48.375C48.996 58 49.5 57.5003 49.5 56.8846C49.5 56.2689 48.996 55.7692 48.375 55.7692H45V49.0769H65.25C68.9782 49.0769 72 46.081 72 42.3846V6.69231C72 2.99592 68.9782 0 65.25 0ZM42.75 55.7692H29.25V49.0769H42.75V55.7692ZM69.75 42.3846C69.75 44.8496 67.7363 46.8462 65.25 46.8462H6.75C4.26375 46.8462 2.25 44.8496 2.25 42.3846V6.69231C2.25 4.22731 4.26375 2.23077 6.75 2.23077H65.25C67.7363 2.23077 69.75 4.22731 69.75 6.69231V42.3846ZM58.0613 11.2208C56.3018 10.8772 54.7425 11.89 54.207 13.3846H40.5V11.1538H31.5V13.3846H17.793C17.2575 11.89 15.696 10.8772 13.9388 11.2208C12.6495 11.4728 11.5987 12.4968 11.3287 13.7728C10.8675 15.9388 12.5212 17.8462 14.625 17.8462C16.092 17.8462 17.3295 16.9115 17.793 15.6154H31.5V16.1151C21.627 18.1161 14.0737 26.506 13.5315 36.7408C13.4977 37.381 14.0107 37.9231 14.6587 37.9231C15.2505 37.9231 15.7478 37.468 15.777 36.8813C16.2473 27.8132 22.8285 20.3513 31.5 18.3905V20.0769H40.5V18.3882C49.1715 20.3513 55.7528 27.8132 56.223 36.8791C56.2545 37.468 56.7495 37.9231 57.3413 37.9231C57.9893 37.9231 58.5023 37.381 58.4685 36.7408C57.9263 26.506 50.373 18.1161 40.5 16.1151V15.6154H54.207C54.6727 16.9115 55.908 17.8462 57.375 17.8462C59.4788 17.8462 61.1325 15.9388 60.6735 13.7728C60.4012 12.4968 59.3505 11.4728 58.0613 11.2208ZM14.625 15.6154C14.004 15.6154 13.5 15.1157 13.5 14.5C13.5 13.8843 14.004 13.3846 14.625 13.3846C15.246 13.3846 15.75 13.8843 15.75 14.5C15.75 15.1157 15.246 15.6154 14.625 15.6154ZM38.25 17.8462H33.75V13.3846H38.25V17.8462ZM57.375 15.6154C56.754 15.6154 56.25 15.1157 56.25 14.5C56.25 13.8843 56.754 13.3846 57.375 13.3846C57.996 13.3846 58.5 13.8843 58.5 14.5C58.5 15.1157 57.996 15.6154 57.375 15.6154Z" fill="#E38C49"/>
</svg>
