<svg width="25" height="25" viewBox="0 0 25 25" fill="none" xmlns="http://www.w3.org/2000/svg">
<path d="M3.52381 0H21.1429C23.081 0 24.6667 1.58571 24.6667 3.52381V21.1429C24.6667 23.081 23.081 24.6667 21.1429 24.6667H3.52381C1.58571 24.6667 0 23.081 0 21.1429V3.52381C0 1.58571 1.58571 0 3.52381 0Z" fill="#0A426B"/>
<path fill-rule="evenodd" clip-rule="evenodd" d="M9.86681 12.4215V20.9668C9.86681 21.0549 9.9549 21.2311 10.1311 21.2311H13.5668C13.743 21.2311 13.8311 21.143 13.8311 20.9668V12.3334H16.2978C16.3859 12.3334 16.562 12.2454 16.562 12.1573L16.8263 9.5144C16.8263 9.33821 16.7382 9.25012 16.562 9.25012H13.8311V7.40012C13.8311 6.95964 14.1835 6.60726 14.712 6.60726H16.6501C16.8263 6.60726 16.9144 6.51916 16.9144 6.34297V3.78821C16.7382 3.61202 16.6501 3.52393 16.4739 3.52393H13.3025C11.4525 3.52393 9.86681 4.93345 9.86681 6.69535V9.25012H8.193C8.01681 9.25012 7.92871 9.33821 7.92871 9.5144V12.1573C7.92871 12.2454 8.01681 12.4215 8.193 12.4215H9.86681Z" fill="white"/>
</svg>
