<svg width="26" height="26" viewBox="0 0 26 26" fill="none" xmlns="http://www.w3.org/2000/svg">
<path d="M16.8052 12.7312C16.8052 13.5369 16.5662 14.3246 16.1186 14.9946C15.6709 15.6645 15.0346 16.1867 14.2902 16.495C13.5458 16.8034 12.7267 16.8841 11.9364 16.7269C11.1461 16.5697 10.4202 16.1817 9.85044 15.6119C9.28069 15.0422 8.89268 14.3163 8.73548 13.526C8.57829 12.7357 8.65897 11.9166 8.96732 11.1721C9.27567 10.4277 9.79784 9.79145 10.4678 9.34379C11.1378 8.89614 11.9254 8.6572 12.7312 8.6572C13.8113 8.65844 14.8468 9.08806 15.6106 9.85181C16.3743 10.6156 16.8039 11.6511 16.8052 12.7312ZM25.4624 7.12946V18.3329C25.4602 20.2231 24.7084 22.0353 23.3718 23.3718C22.0353 24.7084 20.2231 25.4602 18.3329 25.4624H7.12946C5.23927 25.4602 3.42711 24.7084 2.09054 23.3718C0.753966 22.0353 0.00214072 20.2231 0 18.3329V7.12946C0.00214072 5.23927 0.753966 3.42711 2.09054 2.09054C3.42711 0.753966 5.23927 0.00214072 7.12946 0H18.3329C20.2231 0.00214072 22.0353 0.753966 23.3718 2.09054C24.7084 3.42711 25.4602 5.23927 25.4624 7.12946ZM18.8422 12.7312C18.8422 11.5225 18.4837 10.3411 17.8123 9.33611C17.1408 8.33117 16.1864 7.54791 15.0697 7.08539C13.9531 6.62286 12.7244 6.50184 11.539 6.73764C10.3536 6.97343 9.26471 7.55544 8.41008 8.41008C7.55544 9.26471 6.97343 10.3536 6.73764 11.539C6.50184 12.7244 6.62286 13.9531 7.08539 15.0697C7.54791 16.1864 8.33117 17.1408 9.33611 17.8123C10.3411 18.4837 11.5225 18.8422 12.7312 18.8422C14.3513 18.8403 15.9046 18.1959 17.0503 17.0503C18.1959 15.9046 18.8403 14.3513 18.8422 12.7312ZM20.8791 6.11097C20.8791 5.80881 20.7895 5.51344 20.6217 5.2622C20.4538 5.01096 20.2152 4.81515 19.936 4.69952C19.6569 4.58389 19.3497 4.55363 19.0534 4.61258C18.757 4.67153 18.4848 4.81703 18.2711 5.03069C18.0575 5.24435 17.912 5.51657 17.853 5.81292C17.7941 6.10927 17.8243 6.41645 17.9399 6.69561C18.0556 6.97477 18.2514 7.21337 18.5026 7.38124C18.7539 7.54911 19.0492 7.63871 19.3514 7.63871C19.7566 7.63871 20.1452 7.47775 20.4317 7.19124C20.7182 6.90474 20.8791 6.51615 20.8791 6.11097Z" fill="#0A426B"/>
</svg>
