<svg width="86" height="86" viewBox="0 0 86 86" fill="none" xmlns="http://www.w3.org/2000/svg">
<mask id="mask0_82_136" style="mask-type:alpha" maskUnits="userSpaceOnUse" x="0" y="0" width="86" height="86">
<rect width="86" height="86" fill="#D9D9D9"/>
</mask>
<g mask="url(#mask0_82_136)">
<path d="M53.0903 68.0832C46.0795 68.0832 40.1414 65.6504 35.2758 60.7848C30.4102 55.9192 27.9774 49.9811 27.9774 42.9703C27.9774 36.0114 30.4102 30.0963 35.2758 25.2247C40.1414 20.3526 46.0795 17.9165 53.0903 17.9165C60.0486 17.9165 65.9638 20.3526 70.8359 25.2247C75.708 30.0963 78.1441 36.0114 78.1441 42.9703C78.1441 49.9811 75.708 55.9192 70.8359 60.7848C65.9638 65.6504 60.0486 68.0832 53.0903 68.0832ZM53.0608 64.4998C59.033 64.4998 64.1094 62.4096 68.2899 58.229C72.4705 54.0484 74.5608 48.9721 74.5608 42.9998C74.5608 37.0276 72.4705 31.9512 68.2899 27.7707C64.1094 23.5901 59.033 21.4998 53.0608 21.4998C47.0885 21.4998 42.0122 23.5901 37.8316 27.7707C33.651 31.9512 31.5608 37.0276 31.5608 42.9998C31.5608 48.9721 33.651 54.0484 37.8316 58.229C42.0122 62.4096 47.0885 64.4998 53.0608 64.4998ZM61.9017 54.4871L64.4585 51.9304L54.8524 42.3244V29.7693H51.2691V43.7649L61.9017 54.4871ZM11.4386 30.4582V26.8748H24.3941V30.4582H11.4386ZM7.85522 44.7915V41.2082H24.3941V44.7915H7.85522ZM11.4386 59.1248V55.5415H24.3941V59.1248H11.4386Z" fill="#E38C49"/>
</g>
</svg>
