<svg width="416" height="419" viewBox="0 0 416 419" fill="none" xmlns="http://www.w3.org/2000/svg">
<path d="M197.929 0.241995C87.4999 5.5 0.355904 97.466 0.690904 208.02C0.792904 241.692 8.9219 273.474 23.2619 301.556L1.2449 408.429C0.0539039 414.21 5.2679 419.272 11.0109 417.912L115.734 393.101C142.639 406.503 172.859 414.244 204.842 414.732C317.711 416.456 411.824 326.835 415.342 214.008C419.113 93.065 319.295 -5.538 197.929 0.241995ZM322.886 322.197C292.217 352.866 251.44 369.756 208.068 369.756C182.672 369.756 158.358 364.058 135.799 352.821L121.215 345.556L57.0089 360.768L70.5239 295.161L63.3389 281.091C51.6279 258.156 45.6899 233.355 45.6899 207.378C45.6899 164.005 62.5799 123.229 93.2489 92.559C123.644 62.164 165.086 44.999 208.071 44.999C251.443 45 292.218 61.89 322.887 92.558C353.556 123.227 370.446 164.003 370.447 207.375C370.446 250.361 353.281 291.803 322.886 322.197Z" fill="#FAFAFA"/>
<path d="M308.712 252.351L268.543 240.817C263.262 239.301 257.575 240.799 253.727 244.72L243.904 254.728C239.762 258.948 233.477 260.304 227.995 258.086C208.993 250.396 169.021 214.856 158.813 197.079C155.868 191.951 156.355 185.54 159.971 180.861L168.547 169.766C171.907 165.419 172.616 159.581 170.394 154.556L153.494 116.333C149.446 107.178 137.747 104.513 130.104 110.977C118.893 120.459 105.591 134.868 103.974 150.831C101.123 178.975 113.193 214.453 158.836 257.053C211.566 306.268 253.792 312.77 281.285 306.11C296.879 302.333 309.341 287.191 317.206 274.793C322.568 266.34 318.334 255.114 308.712 252.351Z" fill="#FAFAFA"/>
</svg>
