<svg width="119" height="119" viewBox="0 0 119 119" fill="none" xmlns="http://www.w3.org/2000/svg">
<g clip-path="url(#clip0_43_327)">
<path d="M117.017 25.7833V17.85H119V5.95H113.05V0H5.95V5.95H0V17.85H1.98333V25.7833V28.7583V97.1833H0V119H35.7H39.6667H79.3333H83.3H119V97.1833H117.017V28.7583V25.7833ZM113.05 25.7833V28.7583C113.05 31.4934 110.827 33.7167 108.092 33.7167C105.357 33.7167 103.133 31.4934 103.133 28.7583V17.85H113.05V25.7833ZM99.1667 28.7583C99.1667 31.4934 96.9434 33.7167 94.2083 33.7167C91.4733 33.7167 89.25 31.4934 89.25 28.7583V17.85H99.1667V28.7583ZM85.2833 28.7583C85.2833 31.1026 83.6471 33.0582 81.4575 33.5739L80.9537 33.6492C80.7475 33.677 80.5392 33.7167 80.325 33.7167C77.59 33.7167 75.3667 31.4934 75.3667 28.7583V17.85H85.2833V28.7583ZM37.9729 33.6373L37.5366 33.5719C35.3509 33.0562 33.7167 31.1007 33.7167 28.7583V17.85H43.6333V28.7583C43.6333 31.4934 41.41 33.7167 38.675 33.7167C38.4608 33.7167 38.2526 33.677 37.9729 33.6373ZM29.75 28.7583C29.75 31.4934 27.5267 33.7167 24.7917 33.7167C22.0567 33.7167 19.8333 31.4934 19.8333 28.7583V17.85H29.75V28.7583ZM71.4 28.7583C71.4 31.4934 69.1767 33.7167 66.4417 33.7167C63.7067 33.7167 61.4833 31.4934 61.4833 28.7583V17.85H71.4V28.7583ZM57.5167 28.7583C57.5167 31.4934 55.2934 33.7167 52.5583 33.7167C49.8233 33.7167 47.6 31.4934 47.6 28.7583V17.85H57.5167V28.7583ZM47.6 36.172C47.6139 36.182 47.6317 36.1879 47.6456 36.1978C48.0621 36.4735 48.5064 36.7115 48.9685 36.9158C49.0518 36.9535 49.1351 36.9872 49.2204 37.0229C49.6904 37.2133 50.1764 37.37 50.6841 37.4771C50.7595 37.4929 50.8348 37.5029 50.9102 37.5167C51.4457 37.6179 51.9931 37.6833 52.5583 37.6833C53.1236 37.6833 53.671 37.6179 54.2085 37.5167C54.2838 37.5029 54.3592 37.4929 54.4346 37.4771C54.9403 37.368 55.4262 37.2133 55.8983 37.0229C55.9836 36.9892 56.0669 36.9535 56.1502 36.9158C56.6123 36.7115 57.0546 36.4735 57.473 36.1978C57.5365 36.1562 57.596 36.1086 57.6595 36.0649C58.0859 35.7655 58.4944 35.4402 58.8614 35.0733C58.8713 35.0634 58.8812 35.0514 58.8911 35.0395C59.1053 34.8234 59.3116 34.5993 59.502 34.3613C59.6944 34.5993 59.8987 34.8234 60.1129 35.0395C60.1228 35.0495 60.1327 35.0614 60.1426 35.0733C60.5095 35.4402 60.9181 35.7655 61.3445 36.0649C61.406 36.1086 61.4655 36.1542 61.5309 36.1978C61.9474 36.4735 62.3917 36.7115 62.8538 36.9158C62.9371 36.9535 63.0204 36.9872 63.1057 37.0229C63.5758 37.2133 64.0617 37.37 64.5694 37.4771C64.6448 37.4929 64.7201 37.5029 64.7955 37.5167C65.329 37.6179 65.8764 37.6833 66.4417 37.6833C67.0069 37.6833 67.5543 37.6179 68.0918 37.5167C68.1672 37.5029 68.2425 37.4929 68.3179 37.4771C68.8236 37.368 69.3096 37.2133 69.7816 37.0229C69.8669 36.9892 69.9502 36.9535 70.0335 36.9158C70.4956 36.7115 70.9379 36.4735 71.3564 36.1978C71.3703 36.1879 71.3881 36.182 71.402 36.172V65.45H47.6V36.172ZM9.91667 3.96667H109.083V5.95H9.91667V3.96667ZM3.96667 9.91667H5.95H113.05H115.033V13.8833H103.133H99.1667H89.25H85.2833H75.3667H71.4H61.4833H57.5167H47.6H43.6333H33.7167H29.75H19.8333H15.8667H3.96667V9.91667ZM15.8667 17.85V28.7583C15.8667 31.4934 13.6434 33.7167 10.9083 33.7167C8.17332 33.7167 5.95 31.4934 5.95 28.7583V25.7833V17.85H15.8667ZM5.95 36.172C7.37007 37.124 9.07375 37.6833 10.9083 37.6833C13.7267 37.6833 16.2138 36.3446 17.85 34.2998C19.4863 36.3446 21.9734 37.6833 24.7917 37.6833C27.61 37.6833 30.0971 36.3446 31.7333 34.2998C32.7607 35.585 34.1213 36.5727 35.7 37.1359V97.1833H5.95V36.172ZM27.7667 115.033C28.8635 115.033 29.75 114.147 29.75 113.05C29.75 111.953 28.8635 111.067 27.7667 111.067H25.7833C24.6866 111.067 23.8 111.953 23.8 113.05C23.8 114.147 24.6866 115.033 25.7833 115.033H19.8333C20.9301 115.033 21.8167 114.147 21.8167 113.05C21.8167 111.953 20.9301 111.067 19.8333 111.067H17.85C16.7532 111.067 15.8667 111.953 15.8667 113.05C15.8667 114.147 16.7532 115.033 17.85 115.033H11.9C12.9968 115.033 13.8833 114.147 13.8833 113.05C13.8833 111.953 12.9968 111.067 11.9 111.067H9.91667C8.81988 111.067 7.93333 111.953 7.93333 113.05C7.93333 114.147 8.81988 115.033 9.91667 115.033H3.96667C5.06345 115.033 5.95 114.147 5.95 113.05C5.95 111.953 5.06345 111.067 3.96667 111.067V109.083H5.95C7.04678 109.083 7.93333 108.197 7.93333 107.1C7.93333 106.003 7.04678 105.117 5.95 105.117H3.96667V101.15H5.95C5.95 102.247 6.83655 103.133 7.93333 103.133H9.91667C11.0135 103.133 11.9 102.247 11.9 101.15H13.8833C13.8833 102.247 14.7699 103.133 15.8667 103.133H17.85C18.9468 103.133 19.8333 102.247 19.8333 101.15H21.8167C21.8167 102.247 22.7032 103.133 23.8 103.133H25.7833C26.8801 103.133 27.7667 102.247 27.7667 101.15H29.75C29.75 102.247 30.6366 103.133 31.7333 103.133H33.7167C34.8135 103.133 35.7 102.247 35.7 101.15V105.117C34.6032 105.117 33.7167 106.003 33.7167 107.1C33.7167 108.197 34.6032 109.083 35.7 109.083V111.067H33.7167C32.6199 111.067 31.7333 111.953 31.7333 113.05C31.7333 114.147 32.6199 115.033 33.7167 115.033H27.7667ZM79.3333 115.033H39.6667V97.1833V37.6298C39.8075 37.6139 39.9344 37.5643 40.0733 37.5425C40.3688 37.4949 40.6544 37.4314 40.9419 37.3561C41.2236 37.2807 41.4993 37.1994 41.771 37.0983C42.0467 36.9951 42.3124 36.8781 42.5762 36.7492C42.8321 36.6242 43.08 36.4933 43.32 36.3446C43.4211 36.2811 43.5361 36.2395 43.6353 36.172V69.4167H75.3686V36.172C75.4678 36.2395 75.5829 36.2811 75.684 36.3446C75.926 36.4933 76.1739 36.6242 76.4278 36.7492C76.6915 36.8781 76.9553 36.9951 77.233 37.0983C77.5027 37.1994 77.7784 37.2807 78.062 37.3561C78.3476 37.4314 78.6332 37.4949 78.9307 37.5425C79.0696 37.5643 79.1965 37.6139 79.3373 37.6298V97.1833V115.033H79.3333ZM107.1 115.033C108.197 115.033 109.083 114.147 109.083 113.05C109.083 111.953 108.197 111.067 107.1 111.067H105.117C104.02 111.067 103.133 111.953 103.133 113.05C103.133 114.147 104.02 115.033 105.117 115.033H99.1667C100.263 115.033 101.15 114.147 101.15 113.05C101.15 111.953 100.263 111.067 99.1667 111.067H97.1833C96.0866 111.067 95.2 111.953 95.2 113.05C95.2 114.147 96.0866 115.033 97.1833 115.033H91.2333C92.3301 115.033 93.2167 114.147 93.2167 113.05C93.2167 111.953 92.3301 111.067 91.2333 111.067H89.25C88.1532 111.067 87.2667 111.953 87.2667 113.05C87.2667 114.147 88.1532 115.033 89.25 115.033H83.3C84.3968 115.033 85.2833 114.147 85.2833 113.05C85.2833 111.953 84.3968 111.067 83.3 111.067V109.083H85.2833C86.3801 109.083 87.2667 108.197 87.2667 107.1C87.2667 106.003 86.3801 105.117 85.2833 105.117H83.3V101.15H85.2833C85.2833 102.247 86.1699 103.133 87.2667 103.133H89.25C90.3468 103.133 91.2333 102.247 91.2333 101.15H93.2167C93.2167 102.247 94.1032 103.133 95.2 103.133H97.1833C98.2801 103.133 99.1667 102.247 99.1667 101.15H101.15C101.15 102.247 102.037 103.133 103.133 103.133H105.117C106.213 103.133 107.1 102.247 107.1 101.15H109.083C109.083 102.247 109.97 103.133 111.067 103.133H113.05C114.147 103.133 115.033 102.247 115.033 101.15V105.117C113.937 105.117 113.05 106.003 113.05 107.1C113.05 108.197 113.937 109.083 115.033 109.083V111.067H113.05C111.953 111.067 111.067 111.953 111.067 113.05C111.067 114.147 111.953 115.033 113.05 115.033H107.1ZM83.3 97.1833V37.1359C84.8787 36.5727 86.2393 35.585 87.2667 34.2998C88.9029 36.3446 91.39 37.6833 94.2083 37.6833C97.0267 37.6833 99.5138 36.3446 101.15 34.2998C102.786 36.3446 105.273 37.6833 108.092 37.6833C109.926 37.6833 111.63 37.124 113.05 36.172V97.1833H83.3Z" fill="#EBF2FA"/>
<path d="M43.6333 111.067H75.3666V75.3667H43.6333V111.067ZM47.6 79.3334H71.4V107.1H47.6V79.3334Z" fill="#EBF2FA"/>
<path d="M13.8834 105.117H11.9001C10.8033 105.117 9.91675 106.003 9.91675 107.1C9.91675 108.197 10.8033 109.083 11.9001 109.083H13.8834C14.9802 109.083 15.8667 108.197 15.8667 107.1C15.8667 106.003 14.9802 105.117 13.8834 105.117Z" fill="#EBF2FA"/>
<path d="M29.7501 105.117H27.7668C26.67 105.117 25.7834 106.003 25.7834 107.1C25.7834 108.197 26.67 109.083 27.7668 109.083H29.7501C30.8469 109.083 31.7334 108.197 31.7334 107.1C31.7334 106.003 30.8469 105.117 29.7501 105.117Z" fill="#EBF2FA"/>
<path d="M21.8168 105.117H19.8334C18.7366 105.117 17.8501 106.003 17.8501 107.1C17.8501 108.197 18.7366 109.083 19.8334 109.083H21.8168C22.9135 109.083 23.8001 108.197 23.8001 107.1C23.8001 106.003 22.9135 105.117 21.8168 105.117Z" fill="#EBF2FA"/>
<path d="M93.2167 105.117H91.2333C90.1366 105.117 89.25 106.003 89.25 107.1C89.25 108.197 90.1366 109.083 91.2333 109.083H93.2167C94.3135 109.083 95.2 108.197 95.2 107.1C95.2 106.003 94.3135 105.117 93.2167 105.117Z" fill="#EBF2FA"/>
<path d="M109.083 105.117H107.1C106.003 105.117 105.117 106.003 105.117 107.1C105.117 108.197 106.003 109.083 107.1 109.083H109.083C110.18 109.083 111.067 108.197 111.067 107.1C111.067 106.003 110.18 105.117 109.083 105.117Z" fill="#EBF2FA"/>
<path d="M101.15 105.117H99.1667C98.0699 105.117 97.1833 106.003 97.1833 107.1C97.1833 108.197 98.0699 109.083 99.1667 109.083H101.15C102.247 109.083 103.133 108.197 103.133 107.1C103.133 106.003 102.247 105.117 101.15 105.117Z" fill="#EBF2FA"/>
<path d="M9.91669 53.55C10.4244 53.55 10.9322 53.3557 11.3189 52.9689L19.2522 45.0356C20.0277 44.2601 20.0277 43.0066 19.2522 42.2311C18.4768 41.4557 17.2233 41.4557 16.4478 42.2311L8.51447 50.1645C7.73899 50.94 7.73899 52.1934 8.51447 52.9689C8.90122 53.3557 9.40896 53.55 9.91669 53.55Z" fill="#EBF2FA"/>
<path d="M9.91669 63.4667C10.4244 63.4667 10.9322 63.2723 11.3189 62.8856L15.2856 58.9189C16.0611 58.1434 16.0611 56.8899 15.2856 56.1144C14.5101 55.339 13.2566 55.339 12.4811 56.1144L8.51447 60.0811C7.73899 60.8566 7.73899 62.1101 8.51447 62.8856C8.90122 63.2723 9.40896 63.4667 9.91669 63.4667Z" fill="#EBF2FA"/>
<path d="M16.4419 52.1418C16.0829 52.5167 15.8667 53.0343 15.8667 53.55C15.8667 54.0855 16.0829 54.5813 16.4419 54.9581C16.8167 55.3151 17.3344 55.5333 17.85 55.5333C18.3855 55.5333 18.8814 55.3151 19.2582 54.9581C19.6152 54.5813 19.8334 54.0855 19.8334 53.55C19.8334 53.0343 19.6152 52.5167 19.2582 52.1418C18.5244 51.408 17.1955 51.408 16.4419 52.1418Z" fill="#EBF2FA"/>
<path d="M20.4144 50.9856C20.8011 51.3723 21.3089 51.5667 21.8166 51.5667C22.3243 51.5667 22.8321 51.3723 23.2188 50.9856L29.1688 45.0356C29.9443 44.2601 29.9443 43.0066 29.1688 42.2311C28.3933 41.4557 27.1399 41.4557 26.3644 42.2311L20.4144 48.1811C19.6389 48.9566 19.6389 50.2101 20.4144 50.9856Z" fill="#EBF2FA"/>
<path d="M26.3645 52.1478L8.51447 69.9978C7.73899 70.7733 7.73899 72.0267 8.51447 72.8022C8.90122 73.189 9.40896 73.3833 9.91669 73.3833C10.4244 73.3833 10.9322 73.189 11.3189 72.8022L29.1689 54.9522C29.9444 54.1767 29.9444 52.9233 29.1689 52.1478C28.3934 51.3723 27.14 51.3723 26.3645 52.1478Z" fill="#EBF2FA"/>
<path d="M33.1415 48.1751C32.4077 47.4413 31.0372 47.4413 30.3252 48.1751C29.9662 48.55 29.75 49.0458 29.75 49.5833C29.75 50.1188 29.9662 50.6146 30.3252 50.9915C30.7 51.3485 31.1959 51.5666 31.7333 51.5666C32.2688 51.5666 32.7647 51.3485 33.1415 50.9915C33.4985 50.6146 33.7167 50.1188 33.7167 49.5833C33.7167 49.0458 33.4985 48.55 33.1415 48.1751Z" fill="#EBF2FA"/>
<path d="M87.2665 53.55C87.7743 53.55 88.282 53.3557 88.6688 52.9689L96.6021 45.0356C97.3776 44.2601 97.3776 43.0066 96.6021 42.2311C95.8266 41.4557 94.5731 41.4557 93.7977 42.2311L85.8643 50.1645C85.0888 50.94 85.0888 52.1934 85.8643 52.9689C86.2511 53.3557 86.7588 53.55 87.2665 53.55Z" fill="#EBF2FA"/>
<path d="M87.2665 63.4667C87.7743 63.4667 88.282 63.2723 88.6688 62.8856L92.6354 58.9189C93.4109 58.1434 93.4109 56.8899 92.6354 56.1144C91.8599 55.339 90.6065 55.339 89.831 56.1144L85.8643 60.0811C85.0888 60.8566 85.0888 62.1101 85.8643 62.8856C86.2511 63.2723 86.7588 63.4667 87.2665 63.4667Z" fill="#EBF2FA"/>
<path d="M93.7917 52.1418C93.4327 52.5167 93.2166 53.0343 93.2166 53.55C93.2166 54.0656 93.4327 54.5813 93.7917 54.9581C94.1666 55.3151 94.6624 55.5333 95.1999 55.5333C95.7156 55.5333 96.2312 55.3151 96.6081 54.9581C96.9651 54.5813 97.1832 54.0656 97.1832 53.55C97.1832 53.0343 96.9651 52.5167 96.6081 52.1418C95.8544 51.408 94.5256 51.408 93.7917 52.1418Z" fill="#EBF2FA"/>
<path d="M97.7645 50.9856C98.1512 51.3723 98.659 51.5667 99.1667 51.5667C99.6744 51.5667 100.182 51.3723 100.569 50.9856L106.519 45.0356C107.294 44.2601 107.294 43.0066 106.519 42.2311C105.743 41.4557 104.49 41.4557 103.714 42.2311L97.7645 48.1811C96.989 48.9566 96.989 50.2101 97.7645 50.9856Z" fill="#EBF2FA"/>
<path d="M103.714 52.1478L85.8643 69.9978C85.0888 70.7733 85.0888 72.0267 85.8643 72.8022C86.2511 73.189 86.7588 73.3833 87.2665 73.3833C87.7743 73.3833 88.282 73.189 88.6688 72.8022L106.519 54.9522C107.294 54.1767 107.294 52.9233 106.519 52.1478C105.743 51.3723 104.49 51.3723 103.714 52.1478Z" fill="#EBF2FA"/>
<path d="M110.492 48.1751C109.758 47.4413 108.409 47.4413 107.675 48.1751C107.316 48.55 107.1 49.0458 107.1 49.5833C107.1 50.1188 107.316 50.6146 107.675 50.9915C108.05 51.3485 108.568 51.5666 109.083 51.5666C109.599 51.5666 110.115 51.3485 110.492 50.9915C110.849 50.6146 111.067 50.099 111.067 49.5833C111.067 49.0676 110.849 48.55 110.492 48.1751Z" fill="#EBF2FA"/>
</g>
<defs>
<clipPath id="clip0_43_327">
<rect width="119" height="119" fill="white"/>
</clipPath>
</defs>
</svg>
