<svg width="175" height="175" viewBox="0 0 175 175" fill="none" xmlns="http://www.w3.org/2000/svg">
<path d="M3.71787 86.7398C3.71346 101.492 7.5682 115.896 14.8975 128.592L3.01661 171.972L47.4097 160.332C59.6399 166.998 73.4111 170.516 87.4258 170.52H87.4628C133.614 170.52 171.182 132.965 171.202 86.8059C171.21 64.4378 162.508 43.4052 146.696 27.5814C130.887 11.7584 109.862 3.03983 87.4593 3.03012C41.3029 3.03012 3.73728 40.5825 3.71787 86.7398Z" fill="url(#paint0_linear_114_52)"/>
<path d="M0.728608 86.7123C0.723315 101.995 4.71655 116.915 12.3069 130.065L0 175L45.9852 162.943C58.6556 169.851 72.9208 173.493 87.4374 173.499H87.4744C135.281 173.499 174.199 134.593 174.219 86.782C174.227 63.6103 165.211 41.8217 148.835 25.4307C132.457 9.04144 110.679 0.00970301 87.4744 0C39.6589 0 0.748014 38.8994 0.728608 86.7123ZM28.1132 127.801L26.3966 125.075C19.1784 113.598 15.3687 100.336 15.374 86.7176C15.3899 46.9776 47.7318 14.6463 87.5018 14.6463C106.76 14.6542 124.861 22.1617 138.474 35.7838C152.088 49.4069 159.578 67.5162 159.573 86.7767C159.555 126.518 127.213 158.853 87.4744 158.853H87.4462C74.5068 158.846 61.817 155.372 50.7494 148.805L48.1155 147.243L20.8271 154.398L28.1132 127.801Z" fill="url(#paint1_linear_114_52)"/>
<path d="M65.7937 50.461C64.1698 46.8515 62.4611 46.7792 60.9166 46.7157C59.6526 46.6619 58.2068 46.6653 56.7628 46.6653C55.3171 46.6653 52.969 47.2088 50.9834 49.3769C48.996 51.546 43.3965 56.7891 43.3965 67.4528C43.3965 78.1173 51.1642 88.4219 52.2465 89.8694C53.3306 91.3142 67.2412 113.898 89.2715 122.585C107.581 129.805 111.307 128.369 115.281 128.007C119.255 127.647 128.105 122.766 129.91 117.705C131.717 112.644 131.717 108.306 131.175 107.4C130.634 106.497 129.188 105.954 127.021 104.871C124.852 103.787 114.197 98.543 112.21 97.8197C110.223 97.0972 108.778 96.7365 107.332 98.9064C105.887 101.074 101.736 105.954 100.471 107.4C99.2073 108.848 97.9424 109.029 95.7751 107.945C93.6069 106.858 86.6261 104.571 78.345 97.1881C71.9013 91.443 67.5517 84.3484 66.2868 82.1784C65.0227 80.0111 66.1518 78.837 67.2386 77.7565C68.2124 76.7853 69.4067 75.2258 70.4908 73.9608C71.5723 72.695 71.9331 71.7918 72.6555 70.346C73.3788 68.8994 73.0171 67.6336 72.4755 66.5495C71.9331 65.4654 67.7211 54.7471 65.7937 50.461Z" fill="white"/>
<defs>
<linearGradient id="paint0_linear_114_52" x1="8710.96" y1="17500" x2="8710.96" y2="0.00834467" gradientUnits="userSpaceOnUse">
<stop stop-color="#1FAF38"/>
<stop offset="1" stop-color="#60D669"/>
</linearGradient>
<linearGradient id="paint1_linear_114_52" x1="8710.97" y1="17500" x2="8710.97" y2="-0.0229478" gradientUnits="userSpaceOnUse">
<stop stop-color="#F9F9F9"/>
<stop offset="1" stop-color="white"/>
</linearGradient>
</defs>
</svg>
